<svg width="179" height="46" viewBox="0 0 179 46" fill="none" xmlns="http://www.w3.org/2000/svg">
<path d="M177.084 16.4426C178.343 16.4972 179 17.3712 179 19.01C179 20.6488 178.452 22.1783 177.467 24.3634C176.516 26.4354 175.281 28.3657 173.798 30.0992C172.484 31.738 171.115 32.5027 169.801 32.5027C168.487 32.5027 167.282 31.3556 167.227 29.2798C167.173 27.204 168.213 24.4727 169.965 21.9052C170.587 20.9299 171.322 20.0314 172.156 19.2285C172.868 18.4473 173.699 17.7835 174.62 17.262C175.351 16.7715 176.203 16.4883 177.084 16.4426ZM174.51 25.6198C174.243 25.4794 174.016 25.2724 173.853 25.0189C174.07 24.5068 174.386 24.0427 174.784 23.6533C175.306 23.046 175.765 22.387 176.153 21.6867C176.507 21.2043 176.732 20.6407 176.81 20.0479C176.81 19.447 176.536 19.1193 176.098 19.1193C175.645 19.1574 175.22 19.3504 174.893 19.6655C173.458 20.7456 172.233 22.0786 171.279 23.5986C170.3 25.0492 169.698 26.7199 169.527 28.4604C169.578 28.8049 169.689 29.1378 169.856 29.4437C170.079 29.6272 170.341 29.758 170.622 29.8261C171.409 29.6917 172.115 29.2617 172.594 28.6243C173.41 27.7475 174.06 26.7293 174.51 25.6198ZM156.002 23.981V24.1449C157.012 22.9699 158.11 21.8741 159.288 20.8673C160.548 19.7241 161.884 18.6657 163.285 17.699C163.68 17.4644 164.103 17.2808 164.544 17.1527C164.758 17.1983 164.951 17.3136 165.092 17.4805C165.289 17.6882 165.406 17.9594 165.421 18.2453C165.421 18.2999 165.366 18.3545 165.366 18.4091C165.33 18.4564 165.311 18.5139 165.311 18.573C165.038 19.0638 164.687 19.5067 164.271 19.884L162.792 21.0858C162.437 21.457 162.175 21.906 162.026 22.3969C162.026 22.67 162.299 22.8885 162.737 22.9977L164.435 22.1783C165.01 21.963 165.56 21.6884 166.078 21.359C166.357 21.1675 166.675 21.0372 167.008 20.9766C167.086 20.9759 167.162 20.9957 167.23 21.0341C167.297 21.0725 167.353 21.1281 167.392 21.1951C167.556 21.3043 167.666 21.4136 167.666 21.5775C167.6 22.029 167.365 22.439 167.008 22.7246C165.037 24.5273 163.121 25.3467 161.423 25.3467C159.726 25.3467 159.616 24.9097 159.507 23.981C159.498 23.4053 159.692 22.8446 160.054 22.3969H160C158.379 23.7478 156.926 25.2884 155.674 26.9855C154.572 28.3848 153.635 29.9061 152.881 31.5195L152.553 32.1204C152.437 32.3457 152.309 32.5645 152.17 32.7759L151.622 33.1583L151.184 33.3768C150.527 33.2311 150.198 32.9034 150.198 32.3935C150.231 31.9056 150.342 31.4262 150.527 30.9732C150.965 29.6622 151.567 28.1873 152.279 26.4938C152.991 24.8004 153.758 23.2709 154.524 21.796C155.15 20.6309 155.943 19.5635 156.879 18.6276C157.106 18.4947 157.325 18.3488 157.536 18.1906C157.772 18.0963 157.994 17.9675 158.193 17.8082C158.434 17.8312 158.663 17.9264 158.85 18.0814C158.955 18.1267 159.043 18.2038 159.102 18.3018C159.161 18.3998 159.188 18.5137 159.178 18.6276C159.199 18.9005 159.121 19.1717 158.959 19.3924C158.613 19.946 158.229 20.4753 157.809 20.9766C157.383 21.5107 156.999 22.0768 156.66 22.67C156.364 23.0847 156.142 23.5465 156.002 24.0356V23.981ZM150.417 16.4972C151.622 16.5518 152.279 17.4259 152.279 19.0646C152.279 20.7034 151.786 22.233 150.801 24.418C149.85 26.49 148.615 28.4204 147.132 30.1538C145.818 31.7926 144.394 32.5574 143.08 32.5574C141.766 32.5574 140.616 31.4102 140.561 29.3344C140.507 27.2586 141.547 24.5273 143.299 21.9598C143.921 20.9845 144.656 20.086 145.489 19.2832C146.201 18.5019 147.033 17.8382 147.953 17.3166C148.681 16.8184 149.535 16.5345 150.417 16.4972ZM147.844 25.6744C147.577 25.534 147.35 25.327 147.187 25.0736C147.404 24.5614 147.72 24.0973 148.118 23.7079C148.622 23.0868 149.079 22.4295 149.487 21.7413C149.84 21.259 150.066 20.6953 150.144 20.1025C150.144 19.5017 149.87 19.1739 149.432 19.1739C148.977 19.2027 148.548 19.397 148.227 19.7202C146.797 20.784 145.573 22.0982 144.613 23.5986C143.634 25.0492 143.032 26.7199 142.861 28.4604C142.912 28.8049 143.023 29.1378 143.19 29.4437C143.413 29.6272 143.675 29.758 143.956 29.8261C144.743 29.6917 145.449 29.2617 145.927 28.6243C146.744 27.7475 147.394 26.7293 147.844 25.6198V25.6744ZM134.319 24.2542C133.669 25.6963 133.156 27.196 132.786 28.7335C132.786 29.0613 133.005 29.2252 133.443 29.2798C134.093 29.1921 134.692 28.8834 135.14 28.4058C135.685 27.8976 136.147 27.3078 136.509 26.6577L137.714 24.8004C138.097 24.2542 138.426 23.981 138.754 23.981C139.083 23.981 139.028 24.1449 139.138 24.2542C139.209 24.3263 139.264 24.4117 139.302 24.5054C139.34 24.5992 139.358 24.6995 139.357 24.8004C139.31 25.0863 139.217 25.3629 139.083 25.6198C138.532 26.6748 137.891 27.68 137.166 28.6243C136.562 29.5141 135.844 30.322 135.031 31.0278C134.234 31.6773 133.262 32.0765 132.238 32.175C131.198 32.0657 130.541 31.3556 130.377 30.0992C130.42 29.4163 130.53 28.7394 130.705 28.078C131.781 24.5723 133.174 21.1715 134.867 17.9175C136.589 14.3875 138.604 11.0071 140.89 7.81159C142.916 4.86177 144.723 2.89521 146.201 1.96656C146.709 1.58321 147.318 1.35548 147.953 1.31105C148.202 1.30604 148.447 1.36346 148.667 1.47802C148.887 1.59259 149.075 1.76059 149.213 1.96656C149.56 2.35924 149.754 2.86326 149.76 3.38685C149.708 4.10657 149.522 4.81036 149.213 5.46265C148.584 6.97762 147.834 8.43913 146.968 9.83276C145.982 11.3623 144.887 12.8918 143.628 14.476C142.312 16.1372 140.904 17.7238 139.411 19.2285C137.934 20.7812 136.361 22.2408 134.702 23.5986L134.319 24.2542ZM136.071 20.1025C137.717 18.7859 139.221 17.3031 140.561 15.6778C142.127 13.8044 143.571 11.8339 144.887 9.77815C145.85 8.38259 146.607 6.85546 147.132 5.24414V4.69788C147.132 4.37012 146.913 4.20624 146.53 4.20624C146.055 4.38526 145.626 4.66482 145.27 5.02564C144.529 5.75399 143.868 6.55981 143.299 7.4292C142.446 8.58534 141.66 9.78908 140.945 11.0346C140.068 12.4002 139.302 13.8205 138.426 15.4047C137.55 16.9888 136.783 18.6276 136.071 20.1025ZM123.587 24.2542C122.961 25.7057 122.449 27.2033 122.054 28.7335C122.054 29.0613 122.273 29.2252 122.711 29.2798C123.373 29.1799 123.986 28.874 124.463 28.4058C124.991 27.8831 125.451 27.2957 125.832 26.6577C126.215 26.0022 126.599 25.3467 126.982 24.8004C127.365 24.2542 127.748 23.981 128.077 23.981C128.405 23.981 128.296 24.1449 128.46 24.2542C128.565 24.4174 128.622 24.6066 128.624 24.8004C128.577 25.0797 128.503 25.3539 128.405 25.6198C127.855 26.6748 127.214 27.68 126.489 28.6243C125.864 29.5151 125.128 30.3228 124.299 31.0278C123.528 31.6851 122.571 32.0861 121.561 32.175C120.521 32.0657 119.864 31.3556 119.645 30.0992C119.714 29.4196 119.824 28.7447 119.973 28.078C121.07 24.5717 122.481 21.1711 124.189 17.9175C125.894 14.3892 127.89 11.0089 130.158 7.81159C132.184 4.86177 134.045 2.89521 135.469 1.96656C135.998 1.58426 136.624 1.35722 137.276 1.31105C137.516 1.31021 137.752 1.36986 137.963 1.48446C138.173 1.59906 138.351 1.76489 138.481 1.96656C138.828 2.35924 139.022 2.86326 139.028 3.38685C138.976 4.10657 138.79 4.81036 138.481 5.46265C137.872 6.97706 137.14 8.43875 136.29 9.83276C135.305 11.3623 134.155 12.8918 132.895 14.476C131.636 16.0602 130.212 17.699 128.734 19.2285C127.225 20.7682 125.634 22.227 123.97 23.5986L123.587 24.2542ZM125.339 20.1025C126.997 18.8002 128.503 17.316 129.829 15.6778C131.395 13.8044 132.839 11.8339 134.155 9.77815C135.118 8.38259 135.874 6.85546 136.4 5.24414V4.69788C136.4 4.37012 136.181 4.20624 135.798 4.20624C135.331 4.39973 134.904 4.67752 134.538 5.02564C133.829 5.78247 133.17 6.58541 132.567 7.4292C131.855 8.4671 131.034 9.61426 130.212 11.0346C129.391 12.4548 128.57 13.8205 127.748 15.4047C126.927 16.9888 126.106 18.6276 125.339 20.1025ZM116.359 20.2118C116.254 19.8903 116.048 19.6108 115.773 19.4142C115.497 19.2176 115.165 19.1142 114.826 19.1193C114.187 19.1466 113.573 19.3762 113.074 19.7748C112.451 20.3562 111.866 20.9765 111.322 21.6321C110.6 22.6833 109.976 23.7988 109.46 24.9643C108.901 25.9939 108.565 27.1292 108.474 28.2965C108.529 29.1159 108.803 29.5529 109.131 29.6075C109.46 29.6622 111.541 28.4058 112.964 25.8383C113.358 24.943 113.797 24.0678 114.278 23.2162C114.594 22.5343 114.96 21.877 115.374 21.2497C115.58 20.8056 115.926 20.441 116.359 20.2118ZM113.293 28.2419L113.129 28.1326C112.654 29.3141 111.925 30.3771 110.993 31.2463C110.343 31.9206 109.465 32.3294 108.529 32.3935C106.941 32.2296 106.175 31.1371 106.175 29.1705C106.209 27.7801 106.506 26.4085 107.051 25.1282C107.635 23.5447 108.446 22.0542 109.46 20.7034C110.332 19.4606 111.405 18.3714 112.636 17.4805C113.557 16.8976 114.613 16.5591 115.702 16.4972C116.34 16.4787 116.963 16.6922 117.454 17.0981C117.669 17.2872 117.836 17.5245 117.94 17.7904C118.045 18.0563 118.085 18.3433 118.057 18.6276C118.001 19.0586 117.89 19.4808 117.728 19.884C117.931 20.1279 118.03 20.4421 118.002 20.7581C117.944 21.4396 117.718 22.0964 117.345 22.67C117.053 23.161 116.797 23.6722 116.578 24.1995C115.647 25.893 115.155 27.3132 115.155 28.515C115.094 29.1307 115.248 29.7484 115.593 30.2631C115.845 30.6642 116.205 30.9861 116.633 31.1917C116.863 31.2758 117.058 31.4346 117.188 31.6426C117.317 31.8506 117.372 32.0958 117.345 32.3389C117.345 32.8305 116.961 33.1583 116.14 33.3221C115.901 33.2019 115.641 33.1278 115.374 33.1036L114.607 32.7759C114.355 32.634 114.147 32.4263 114.005 32.175C113.397 31.4535 113.05 30.5493 113.019 29.6075C113.154 29.1622 113.246 28.7049 113.293 28.2419ZM107.872 8.2486C108.893 7.42801 109.732 6.40494 110.336 5.24414C110.911 4.19195 111.352 3.07264 111.65 1.91193C111.705 0.655518 112.307 0 113.293 0C114.278 0 114.443 0.546278 114.443 1.58418C114.254 3.10871 113.71 4.56799 112.855 5.84504C112 7.27633 110.95 8.58174 109.734 9.72352C108.912 10.4337 108.42 10.7614 108.091 10.7614C107.961 10.7474 107.835 10.7061 107.722 10.6402C107.608 10.5743 107.51 10.4853 107.434 10.379C107.322 10.2749 107.235 10.1475 107.178 10.0059C107.121 9.86428 107.096 9.7119 107.105 9.55963C107.186 9.04175 107.46 8.5734 107.872 8.2486ZM95.4424 19.9387C95.04 19.6697 94.5544 19.5534 94.0735 19.6109C93.5584 19.626 93.0526 19.7508 92.5898 19.9769C92.1271 20.203 91.7181 20.5252 91.3904 20.9219C90.724 21.5461 90.1522 22.2638 89.693 23.0524C89.206 23.8926 88.7849 24.7693 88.4336 25.6744C88.1789 26.4521 88.0316 27.2607 87.9956 28.078C88.0503 28.952 88.3789 29.4437 88.8169 29.6075C89.255 29.7714 90.8429 28.4604 92.3213 26.1661C92.73 25.4791 93.0957 24.7676 93.4164 24.0356C93.7997 23.3255 94.2378 22.5607 94.621 21.7413C95.0043 20.9219 95.2781 20.321 95.4424 19.9387ZM93.3069 27.9688C91.6095 30.9186 89.9668 32.5028 88.3789 32.5574C86.7909 32.612 85.8601 31.1371 85.8601 28.7335C85.8664 27.0641 86.2599 25.4188 87.01 23.9264C87.738 22.3043 88.697 20.7957 89.8573 19.447C90.5015 18.8391 91.2415 18.3409 92.0475 17.9721C92.7346 17.5367 93.5333 17.3091 94.3473 17.3166C94.6993 17.2822 95.0547 17.3175 95.393 17.4207C95.7313 17.5238 96.0458 17.6926 96.3185 17.9175L101.027 8.90412L103.218 5.24414C103.656 4.47937 104.094 3.87848 104.313 3.55072C104.415 3.39368 104.552 3.26253 104.713 3.16769C104.875 3.07286 105.057 3.01696 105.244 3.00446C105.411 3.00997 105.575 3.05803 105.718 3.14406C105.862 3.23008 105.981 3.35125 106.065 3.49611C106.283 3.73455 106.401 4.0475 106.394 4.37012C106.368 4.74768 106.276 5.1177 106.12 5.46265L105.189 6.88294C104.911 7.25843 104.673 7.6611 104.477 8.08473C102.944 10.5429 101.958 12.2363 101.466 13.165C100.973 14.0936 100.151 15.4593 99.2206 17.262C98.3325 18.9621 97.5463 20.7132 96.866 22.5061C96.2449 23.9317 95.8389 25.4412 95.6614 26.9855C95.6632 27.3706 95.6265 27.7548 95.5519 28.1326C95.6614 29.4983 95.99 30.427 96.5375 30.7547C96.7283 30.8898 96.8949 31.056 97.0303 31.2463V31.6833C97.0303 31.7926 96.9755 31.9019 96.9755 32.0657C96.9313 32.1496 96.9123 32.2445 96.9208 32.3389C96.7064 32.6686 96.3731 32.9033 95.99 32.9944C95.5262 32.911 95.0934 32.7047 94.737 32.3972C94.3806 32.0896 94.1136 31.6922 93.964 31.2463C93.5395 30.205 93.3166 29.0929 93.3069 27.9688ZM67.3526 25.5652C68.0587 25.3509 68.7384 25.0577 69.3785 24.6912C70.0622 24.1793 70.7031 23.6129 71.295 22.9977C72.3354 21.9598 72.9377 21.0858 72.9924 20.5396C73.0472 19.9933 72.8829 19.7202 72.5544 19.7202C72.2258 19.7202 71.3498 20.2118 70.4737 20.9766C69.7427 21.6452 69.1153 22.4184 68.612 23.2709C68.0501 23.9491 67.6227 24.7277 67.3526 25.5652ZM66.805 27.4771C66.805 28.8974 67.6264 29.7168 69.1048 29.8261C70.3127 29.6833 71.4632 29.2317 72.4449 28.515C73.7147 27.4768 74.9214 26.3641 76.0588 25.1828L76.3873 24.8004C76.5047 24.6576 76.655 24.5451 76.8254 24.4727C76.8764 24.4048 76.9425 24.3498 77.0185 24.3118C77.0946 24.2739 77.1784 24.2542 77.2634 24.2542C77.3546 24.2548 77.4438 24.2807 77.5212 24.3289C77.5985 24.3771 77.6609 24.4458 77.7014 24.5273C77.7652 24.5697 77.8183 24.6263 77.8563 24.6927C77.8943 24.759 77.9163 24.8333 77.9205 24.9097C77.9205 24.9643 77.8657 25.1282 77.8657 25.1828C77.8459 25.205 77.8308 25.2309 77.8214 25.2591C77.812 25.2873 77.8084 25.3171 77.811 25.3467C77.2757 26.4279 76.5094 27.3789 75.566 28.1326C74.2894 29.2941 72.8947 30.3194 71.4045 31.1917C70.3162 31.8039 69.0943 32.1415 67.8454 32.175C65.4909 32.0111 64.341 30.8093 64.341 28.515C64.3671 27.0288 64.7421 25.5695 65.4361 24.2542C66.0569 22.9406 66.8688 21.7257 67.8454 20.6488C70.1451 18.4091 72.0616 17.262 73.54 17.262C75.0184 17.262 75.2922 17.8082 75.2922 19.01C75.217 20.0942 74.8375 21.1354 74.1971 22.0145C72.4769 24.6678 69.8505 26.6087 66.805 27.4771ZM67.6263 9.55963C67.8333 9.26994 68.1034 9.03091 68.4164 8.86058C68.7294 8.69025 69.0771 8.59307 69.4333 8.57636C69.6086 8.55076 69.7875 8.57275 69.9514 8.64004C70.1152 8.70733 70.2578 8.81744 70.3641 8.95875C70.3641 9.05251 70.3828 9.14534 70.4189 9.23189C70.4189 9.45039 70.4737 9.55964 70.4737 9.72352C70.4333 10.5499 70.0812 11.3304 69.488 11.9086C69.2586 12.2441 68.9584 12.5256 68.6084 12.7332C68.2584 12.9408 67.8672 13.0695 67.4621 13.1104C67.2876 13.1053 67.1181 13.0514 66.9729 12.9548C66.8276 12.8582 66.7125 12.7228 66.6407 12.5641C66.58 12.4126 66.5067 12.2665 66.4217 12.1271C66.5794 11.1772 66.9962 10.2889 67.6263 9.55963ZM63.4101 18.6823C63.9029 18.0267 64.3957 17.6444 64.779 17.6444C65.0245 17.6506 65.2588 17.748 65.4361 17.9175C65.527 17.9796 65.6034 18.0606 65.6601 18.1549C65.7168 18.2491 65.7525 18.3545 65.7646 18.4638C65.6317 18.9935 65.3682 19.4817 64.9981 19.884C64.1453 21.0179 63.3941 22.2243 62.7531 23.4894C62.0412 24.8004 61.4389 26.1661 60.8366 27.5318C60.331 28.6833 59.9101 29.87 59.5772 31.0825C59.2487 32.0657 58.9749 32.6666 58.6464 32.7759L58.1536 32.9944C57.4417 32.8305 57.1132 32.3935 57.1132 31.4648C57.1132 30.5362 58.1536 27.9688 59.4677 25.2374C60.5884 22.9422 61.9075 20.7488 63.4101 18.6823ZM51.5829 24.2542C50.9329 25.6963 50.4196 27.196 50.0497 28.7335C50.0497 29.0613 50.2687 29.2252 50.7068 29.2798C51.3566 29.1921 51.9561 28.8834 52.4042 28.4058C52.9501 27.8848 53.4284 27.2975 53.8278 26.6577C54.2111 26.0022 54.5944 25.3467 54.9777 24.8004C55.361 24.2542 55.6895 23.981 56.0181 23.981C56.3466 23.981 56.2919 24.1449 56.4561 24.2542C56.5609 24.4174 56.6178 24.6066 56.6204 24.8004C56.5733 25.0863 56.4809 25.3629 56.3466 25.6198C55.8132 26.6725 55.1904 27.6777 54.4849 28.6243C53.8603 29.5151 53.1242 30.3228 52.2947 31.0278C51.5183 31.676 50.5643 32.0757 49.5569 32.175C48.4618 32.0657 47.8047 31.3556 47.6404 30.0992C47.6832 29.4163 47.7933 28.7394 47.969 28.078C49.0655 24.5717 50.4766 21.1711 52.1852 17.9175C53.8687 14.3781 55.8661 10.996 58.1536 7.81159C60.1795 4.86177 62.0412 2.89521 63.4649 1.96656C63.9786 1.59364 64.5843 1.36706 65.2171 1.31105C65.4653 1.30604 65.7108 1.36346 65.9309 1.47802C66.151 1.59259 66.3386 1.76059 66.4765 1.96656C66.8237 2.35924 67.018 2.86326 67.024 3.38685C66.9715 4.10657 66.7859 4.81036 66.4765 5.46265C65.8704 6.98784 65.1186 8.4513 64.2315 9.83276C63.2459 11.3623 62.1508 12.8918 60.8914 14.476C59.5757 16.1372 58.1681 17.7238 56.6752 19.2285C55.1978 20.7812 53.6251 22.2408 51.9661 23.5986L51.5829 24.2542ZM53.335 20.1025C54.9805 18.7859 56.4852 17.3031 57.825 15.6778C59.3904 13.8044 60.8352 11.8339 62.1507 9.77815C63.1141 8.38259 63.8702 6.85546 64.3957 5.24414V4.69788C64.3957 4.37012 64.1767 4.20624 63.7934 4.20624C63.3267 4.39973 62.8997 4.67752 62.534 5.02564C61.8083 5.76822 61.1487 6.57244 60.5628 7.4292C59.7099 8.58534 58.9238 9.78908 58.2083 11.0346C57.3322 12.4002 56.5656 13.8205 55.6895 15.4047C54.8135 16.9888 54.0469 18.6276 53.335 20.1025ZM30.6113 44.903C29.7424 45.5646 28.6917 45.9458 27.5997 45.9955C27.2566 46.0165 26.9129 45.964 26.5918 45.8415C26.2707 45.719 25.9796 45.5294 25.738 45.2854C25.482 45.0072 25.2865 44.6792 25.164 44.3219C25.0415 43.9646 24.9946 43.5858 25.0262 43.2095C24.9994 41.9133 25.3617 40.6388 26.0666 39.5496C26.7903 38.3899 27.7399 37.3868 28.8591 36.5997C29.757 35.8733 30.7088 35.2159 31.7064 34.6332L36.1964 32.3389L37.182 30.3723C37.4558 29.7714 37.6201 29.2252 37.8391 28.8428V28.7335C36.525 30.3723 35.1561 31.2463 33.6229 31.4102C32.0897 31.5741 31.7064 30.3723 31.7064 28.8974C31.7064 27.4225 32.8563 24.2542 34.9918 21.2497C36.0909 19.756 37.4217 18.4467 38.9342 17.3712C39.9279 16.6767 41.0727 16.2273 42.2743 16.0602C43.698 16.0602 44.4098 16.825 44.4098 18.3545C44.3742 19.2643 44.1505 20.157 43.7527 20.9766L44.136 21.5228C44.1395 21.5649 44.1591 21.6041 44.1908 21.6321V21.7413C44.0744 22.1622 43.869 22.5534 43.5885 22.8885C43.1504 23.4894 42.6029 24.3088 41.891 25.4559C41.1792 26.6031 40.4674 28.078 39.5913 29.8807V30.0992C42.2643 28.2209 44.4892 25.7775 46.1073 22.9431C46.1788 22.7688 46.2904 22.6137 46.4331 22.4904C46.5757 22.367 46.7455 22.2789 46.9286 22.233L47.3119 22.3969C47.4305 22.5741 47.4881 22.785 47.4762 22.9977C47.2995 23.7156 47.0033 24.3988 46.6001 25.0189C45.9875 26.0051 45.2913 26.9372 44.5193 27.8049C43.6448 28.8767 42.653 29.8478 41.5625 30.7001C40.4236 31.6793 39.174 32.5226 37.8391 33.2129C35.2656 39.0033 32.8563 42.8818 30.6113 44.903ZM39.427 24.3634L38.9342 23.8171C39.1117 23.5294 39.3334 23.2714 39.5913 23.0524C40.0254 22.767 40.4132 22.417 40.7412 22.0145C41.1411 21.4843 41.4895 20.9172 41.7815 20.3211C41.8887 20.0205 41.9622 19.7091 42.0006 19.3924C42.0006 18.9554 41.7815 18.7369 41.3982 18.7369C41.0149 18.7369 40.0293 19.2831 38.8795 20.2664C36.0686 22.9977 34.4807 25.6198 34.1157 28.1326C34.0837 28.3566 34.1401 28.5841 34.2728 28.7675C34.4056 28.9509 34.6044 29.0758 34.8275 29.1159C36.4702 28.7335 38.0581 27.1494 39.427 24.3634ZM34.7728 35.0156C33.5104 35.5016 32.343 36.2042 31.3231 37.0914C30.2345 37.9481 29.2593 38.9393 28.4211 40.0412C27.8008 40.7648 27.4185 41.6611 27.326 42.6086C27.326 43.1913 27.545 43.5191 27.983 43.5919C28.3229 43.5635 28.6534 43.4666 28.9546 43.307C29.2558 43.1473 29.5214 42.9283 29.7352 42.6633C30.4377 41.9684 31.062 41.1991 31.5969 40.369C32.1137 39.6311 32.589 38.8651 33.0206 38.0747C33.4586 37.4191 33.9514 36.4359 34.7728 35.0156ZM30.1733 16.4426C31.3779 16.4972 32.035 17.3712 32.035 19.01C32.035 20.6488 31.5422 22.1783 30.5565 24.3634C29.6055 26.4354 28.3708 28.3657 26.8879 30.0992C25.5738 31.738 24.1501 32.5027 22.836 32.5027C21.5218 32.5027 20.3719 31.3556 20.3172 29.2798C20.2624 27.204 21.3028 24.4727 23.055 21.9052C23.6766 20.9299 24.4118 20.0314 25.2452 19.2285C25.9573 18.4473 26.7889 17.7835 27.7092 17.262C28.4373 16.7638 29.2912 16.4799 30.1733 16.4426ZM27.5997 25.6198C27.3324 25.4794 27.1061 25.2724 26.9427 25.0189C27.1594 24.5068 27.4758 24.0427 27.8735 23.6533C28.3776 23.0322 28.8351 22.3749 29.2424 21.6867C29.5962 21.2043 29.8222 20.6407 29.8995 20.0479C29.8995 19.447 29.6257 19.1193 29.1877 19.1193C28.7326 19.148 28.304 19.3424 27.983 19.6655C26.5479 20.7456 25.3231 22.0786 24.3691 23.5986C23.3899 25.0492 22.7878 26.7199 22.6169 28.4604C22.6674 28.8049 22.7786 29.1378 22.9455 29.4437C23.1688 29.6272 23.4309 29.758 23.7121 29.8261C24.499 29.6917 25.2045 29.2617 25.6833 28.6243C26.5001 27.7475 27.1495 26.7293 27.5997 25.6198ZM13.4727 5.02564C12.9799 5.02564 12.7609 4.80714 12.6513 4.20624C12.6774 3.84452 12.8191 3.50067 13.0556 3.22533C13.2922 2.94998 13.6111 2.75767 13.9655 2.67671C15.2843 2.20377 16.6394 1.83839 18.0174 1.58418C19.6601 1.25642 21.3028 0.92866 22.836 0.710154C24.3691 0.491648 25.5738 0.382392 26.2308 0.382392C28.2568 0.382392 29.2972 0.874027 29.2972 1.69342C29.3255 1.8898 29.2997 2.09018 29.2225 2.27303C29.1453 2.45588 29.0197 2.61431 28.8591 2.73132C28.7212 2.88514 28.5525 3.00839 28.3638 3.09308C28.1752 3.17776 27.9709 3.22202 27.764 3.22297C27.1067 3.03263 26.421 2.95867 25.738 3.00446C24.5242 3.02063 23.3144 3.14864 22.1241 3.38685L17.1961 4.53401C16.3336 5.58178 15.5293 6.67596 14.7868 7.81159C13.856 9.12263 13.0894 10.379 12.3228 11.4716C11.5562 12.5641 11.1729 13.5474 10.8444 14.2029C13.1336 13.6863 15.4579 13.3394 17.7984 13.165C19.3863 13.165 20.1529 13.4927 20.2077 14.039C20.2624 14.5853 20.0982 15.0769 19.8244 15.2954C19.3751 15.4842 18.8861 15.5593 18.4007 15.5139C15.1849 15.7552 12.007 16.3599 8.92794 17.3166C7.39477 19.884 5.64258 23.8718 3.56185 29.2252C3.56185 29.2798 3.34283 29.8261 3.06905 30.8093C2.85585 31.4805 2.5998 32.1374 2.30247 32.7759C2.18654 32.9059 2.04248 33.0079 1.88121 33.0741C1.71994 33.1404 1.54568 33.1691 1.37161 33.1583C1.17336 33.1358 0.982422 33.0704 0.812169 32.9666C0.641917 32.8628 0.496471 32.7231 0.386009 32.5574C0.113338 32.1556 -0.0211784 31.6763 0.0027108 31.1917C0.195752 30.1754 0.508197 29.1853 0.933569 28.2419C1.59064 26.5485 2.35722 24.8004 3.28807 22.8885C4.21892 20.9766 5.20453 19.1193 6.29965 17.262C7.39477 15.4047 8.65416 13.1104 10.1873 10.5429C11.7205 7.97547 12.8156 6.22742 13.4727 5.02564Z" fill="#2C2E38"/>
</svg>
