<svg width="24" height="32" viewBox="0 0 24 32" fill="none" xmlns="http://www.w3.org/2000/svg">
<path d="M11.5885 0C17.9789 0 23.1777 5.19888 23.1777 11.5891C23.1777 19.5196 12.8065 31.1621 12.365 31.6539C11.9502 32.1158 11.2261 32.115 10.8121 31.6539C10.3705 31.1621 -0.000667572 19.5196 -0.000667572 11.5891C-0.000543594 5.19888 5.19827 0 11.5885 0ZM11.5885 17.42C14.8037 17.42 17.4193 14.8043 17.4193 11.5891C17.4193 8.37401 14.8036 5.75838 11.5885 5.75838C8.37347 5.75838 5.75784 8.37407 5.75784 11.5892C5.75784 14.8043 8.37347 17.42 11.5885 17.42Z" fill="#AD977B"/>
</svg>
