<svg width="86" height="22" viewBox="0 0 86 22" fill="none" xmlns="http://www.w3.org/2000/svg">
<path d="M85.0792 7.86384C85.6843 7.88996 86 8.30798 86 9.09175C86 9.87552 85.7369 10.607 85.2634 11.6521C84.8064 12.643 84.2133 13.5662 83.5008 14.3953C82.8694 15.179 82.2117 15.5448 81.5804 15.5448C80.949 15.5448 80.3702 14.9962 80.3439 14.0034C80.3176 13.0106 80.8175 11.7043 81.6593 10.4764C81.9579 10.0099 82.3112 9.58022 82.7116 9.19625C83.0537 8.82262 83.4533 8.50517 83.8954 8.25572C84.2471 8.02115 84.6562 7.88571 85.0792 7.86384ZM83.8428 12.253C83.7144 12.1858 83.6056 12.0868 83.5271 11.9656C83.6313 11.7207 83.7833 11.4987 83.9743 11.3124C84.2253 11.022 84.4456 10.7068 84.632 10.3719C84.802 10.1412 84.9106 9.87162 84.9477 9.58814C84.9477 9.30075 84.8162 9.144 84.6057 9.144C84.3882 9.16225 84.1838 9.25454 84.0269 9.40525C83.3374 9.92179 82.749 10.5593 82.2907 11.2863C81.8202 11.98 81.5309 12.7791 81.4488 13.6115C81.4731 13.7763 81.5265 13.9355 81.6067 14.0818C81.714 14.1695 81.8399 14.2321 81.975 14.2646C82.3531 14.2004 82.692 13.9947 82.922 13.6899C83.3145 13.2706 83.6265 12.7836 83.8428 12.253ZM74.9509 11.4692V11.5476C75.4358 10.9856 75.9635 10.4615 76.5294 9.98002C77.135 9.43328 77.7766 8.92707 78.4498 8.46473C78.6395 8.35253 78.8428 8.26474 79.0549 8.20348C79.1576 8.22529 79.2502 8.28043 79.3179 8.36022C79.4127 8.45959 79.4687 8.5893 79.4758 8.72599C79.4758 8.75212 79.4495 8.77824 79.4495 8.80437C79.4324 8.82698 79.4232 8.85448 79.4232 8.88274C79.2922 9.11746 79.1233 9.32928 78.9233 9.50976L78.213 10.0845C78.0426 10.262 77.9164 10.4768 77.8447 10.7115C77.8447 10.8422 77.9763 10.9467 78.1867 10.9989L79.0023 10.607C79.2783 10.5041 79.5429 10.3727 79.7915 10.2152C79.9259 10.1236 80.0783 10.0613 80.2387 10.0323C80.276 10.0319 80.3126 10.0414 80.345 10.0598C80.3773 10.0782 80.4042 10.1047 80.4228 10.1368C80.5018 10.189 80.5544 10.2413 80.5544 10.3197C80.5229 10.5356 80.41 10.7317 80.2387 10.8683C79.2916 11.7304 78.3709 12.1223 77.5554 12.1223C76.7398 12.1223 76.6872 11.9133 76.6346 11.4692C76.6302 11.1938 76.7233 10.9257 76.8977 10.7115H76.8714C76.0925 11.3576 75.3947 12.0945 74.7931 12.9061C74.2635 13.5753 73.8132 14.3029 73.4514 15.0745L73.2936 15.3619C73.238 15.4697 73.1765 15.5743 73.1094 15.6754L72.8463 15.8583L72.6359 15.9628C72.3202 15.8931 72.1623 15.7364 72.1623 15.4925C72.1782 15.2592 72.2315 15.0299 72.3202 14.8133C72.5306 14.1863 72.82 13.4809 73.162 12.671C73.504 11.8611 73.8723 11.1296 74.2406 10.4242C74.5412 9.86697 74.9223 9.35646 75.3718 8.90887C75.481 8.84529 75.5864 8.77551 75.6875 8.69986C75.8013 8.65477 75.9077 8.59313 76.0032 8.51698C76.1193 8.52795 76.2293 8.57348 76.3189 8.64761C76.3694 8.66929 76.4118 8.70616 76.4401 8.75303C76.4685 8.79989 76.4813 8.85439 76.4767 8.90887C76.4867 9.03935 76.4494 9.16907 76.3715 9.27462C76.205 9.53939 76.0204 9.79253 75.8191 10.0323C75.6142 10.2877 75.4295 10.5585 75.2666 10.8422C75.1248 11.0405 75.018 11.2614 74.9509 11.4953V11.4692ZM72.2676 7.88997C72.8463 7.91609 73.162 8.33411 73.162 9.11788C73.162 9.90165 72.9252 10.6332 72.4517 11.6782C71.9948 12.6691 71.4016 13.5924 70.6891 14.4214C70.0578 15.2052 69.3738 15.5709 68.7424 15.5709C68.111 15.5709 67.5586 15.0223 67.5322 14.0295C67.5059 13.0367 68.0058 11.7304 68.8476 10.5025C69.1463 10.0361 69.4995 9.60635 69.8999 9.22238C70.242 8.84875 70.6416 8.5313 71.0837 8.28185C71.4336 8.04359 71.8438 7.9078 72.2676 7.88997ZM71.0311 12.2791C70.9027 12.2119 70.794 12.1129 70.7154 11.9917C70.8196 11.7468 70.9716 11.5248 71.1627 11.3386C71.4048 11.0415 71.6247 10.7271 71.8203 10.398C71.9903 10.1673 72.0989 9.89774 72.136 9.61426C72.136 9.32688 72.0045 9.17012 71.794 9.17012C71.5754 9.18389 71.3695 9.27685 71.2153 9.43138C70.5282 9.94017 69.9399 10.5687 69.479 11.2863C69.0085 11.98 68.7192 12.7791 68.6372 13.6115C68.6614 13.7763 68.7149 13.9355 68.795 14.0818C68.9023 14.1695 69.0282 14.2321 69.1633 14.2646C69.5414 14.2004 69.8803 13.9947 70.1104 13.6899C70.5028 13.2706 70.8148 12.7836 71.0311 12.253V12.2791ZM64.5332 11.5998C64.2209 12.2895 63.9743 13.0068 63.7966 13.7421C63.7966 13.8989 63.9018 13.9773 64.1123 14.0034C64.4245 13.9615 64.7126 13.8138 64.9278 13.5854C65.1895 13.3423 65.4114 13.0603 65.5855 12.7493L66.1643 11.8611C66.3484 11.5998 66.5063 11.4692 66.6641 11.4692C66.8219 11.4692 66.7956 11.5476 66.8483 11.5998C66.8823 11.6343 66.9091 11.6752 66.9272 11.72C66.9452 11.7648 66.9542 11.8128 66.9535 11.8611C66.9308 11.9978 66.8864 12.1301 66.8219 12.253C66.5575 12.7575 66.2494 13.2383 65.9012 13.6899C65.6106 14.1154 65.2657 14.5018 64.8752 14.8394C64.4925 15.15 64.0256 15.341 63.5335 15.388C63.0337 15.3358 62.718 14.9962 62.6391 14.3953C62.6597 14.0687 62.7125 13.7449 62.7969 13.4286C63.3137 11.752 63.9829 10.1255 64.7963 8.56923C65.6237 6.88097 66.5917 5.26426 67.6901 3.73598C68.6635 2.32519 69.5316 1.38466 70.2419 0.940527C70.486 0.757189 70.7785 0.648272 71.0837 0.627023C71.203 0.624626 71.3209 0.652089 71.4267 0.70688C71.5324 0.761671 71.6226 0.842022 71.6888 0.940527C71.8556 1.12833 71.949 1.36938 71.9519 1.6198C71.9267 1.96401 71.8375 2.30061 71.6888 2.61257C71.3869 3.33712 71.0262 4.03611 70.6102 4.70263C70.1367 5.43415 69.6105 6.16567 69.0055 6.92331C68.3733 7.71778 67.6971 8.47661 66.9798 9.19625C66.27 9.93885 65.5144 10.6369 64.7174 11.2863L64.5332 11.5998ZM65.375 9.61426C66.1656 8.98457 66.8885 8.27541 67.5322 7.49808C68.2843 6.60209 68.9785 5.65968 69.6105 4.67651C70.0734 4.00906 70.4366 3.2787 70.6891 2.50807V2.24681C70.6891 2.09006 70.5839 2.01168 70.3997 2.01168C70.1719 2.0973 69.9654 2.231 69.7947 2.40357C69.4384 2.75191 69.1209 3.1373 68.8476 3.5531C68.4378 4.10603 68.0601 4.68174 67.7164 5.2774C67.2955 5.93054 66.9272 6.60981 66.5063 7.36745C66.0854 8.1251 65.717 8.90887 65.375 9.61426ZM59.377 11.5998C59.0763 12.294 58.83 13.0103 58.6404 13.7421C58.6404 13.8989 58.7456 13.9773 58.9561 14.0034C59.274 13.9556 59.5686 13.8093 59.7979 13.5854C60.0518 13.3354 60.2728 13.0545 60.4556 12.7493C60.6397 12.4358 60.8239 12.1223 61.008 11.8611C61.1922 11.5998 61.3763 11.4692 61.5342 11.4692C61.692 11.4692 61.6394 11.5476 61.7183 11.5998C61.7687 11.6779 61.796 11.7684 61.7972 11.8611C61.7743 11.9946 61.7391 12.1258 61.692 12.253C61.4276 12.7575 61.1195 13.2383 60.7713 13.6899C60.4711 14.1159 60.1175 14.5022 59.719 14.8394C59.3487 15.1537 58.8889 15.3455 58.4036 15.388C57.9038 15.3358 57.5881 14.9962 57.4828 14.3953C57.5163 14.0702 57.569 13.7475 57.6407 13.4286C58.1675 11.7517 58.8455 10.1253 59.6664 8.56923C60.4853 6.88181 61.4444 5.26513 62.5339 3.73598C63.5072 2.32519 64.4017 1.38466 65.0857 0.940527C65.34 0.757689 65.6407 0.649103 65.9538 0.627023C66.0691 0.626623 66.1826 0.655149 66.2837 0.709958C66.3849 0.764767 66.4705 0.844077 66.5326 0.940527C66.6994 1.12833 66.7927 1.36938 66.7956 1.6198C66.7704 1.96401 66.6812 2.30061 66.5326 2.61257C66.2404 3.33686 65.8884 4.03592 65.4803 4.70263C65.0067 5.43415 64.4543 6.16567 63.8492 6.92331C63.2442 7.68096 62.5602 8.46473 61.8499 9.19625C61.1247 9.93263 60.3607 10.6303 59.5611 11.2863L59.377 11.5998ZM60.2188 9.61426C61.0155 8.99142 61.7391 8.28156 62.376 7.49808C63.1281 6.60209 63.8222 5.65968 64.4543 4.67651C64.9171 4.00906 65.2804 3.2787 65.5329 2.50807V2.24681C65.5329 2.09006 65.4277 2.01168 65.2435 2.01168C65.0192 2.10422 64.8141 2.23707 64.6384 2.40357C64.2975 2.76553 63.9811 3.14955 63.6914 3.5531C63.3494 4.04949 62.9548 4.59813 62.5602 5.2774C62.1656 5.95666 61.7709 6.60981 61.3763 7.36745C60.9817 8.1251 60.5871 8.90887 60.2188 9.61426ZM55.9044 9.66651C55.8539 9.51273 55.7551 9.37906 55.6226 9.28504C55.49 9.19102 55.3307 9.14159 55.1678 9.144C54.8608 9.15707 54.5659 9.26688 54.326 9.45751C54.0266 9.73555 53.7455 10.0322 53.4841 10.3458C53.1372 10.8485 52.8378 11.382 52.5897 11.9394C52.3212 12.4319 52.1598 12.9748 52.1161 13.5331C52.1425 13.925 52.274 14.134 52.4318 14.1601C52.5897 14.1863 53.5894 13.5854 54.2733 12.3575C54.4626 11.9292 54.6733 11.5107 54.9047 11.1034C55.0562 10.7773 55.2321 10.4629 55.4309 10.1629C55.5299 9.95051 55.6962 9.77615 55.9044 9.66651ZM54.4312 13.507L54.3523 13.4547C54.1243 14.0198 53.774 14.5282 53.3263 14.9439C53.0139 15.2664 52.592 15.4619 52.1425 15.4925C51.3795 15.4142 51.0112 14.8917 51.0112 13.9511C51.0276 13.2861 51.1704 12.6302 51.4322 12.0178C51.7128 11.2605 52.1027 10.5477 52.5897 9.90165C53.0085 9.30725 53.5242 8.78631 54.1155 8.36022C54.5582 8.08144 55.0653 7.91957 55.5887 7.88997C55.8952 7.8811 56.1944 7.98325 56.4305 8.17735C56.5337 8.26778 56.6137 8.38127 56.6641 8.50846C56.7144 8.63564 56.7335 8.77288 56.7199 8.90887C56.6931 9.11499 56.6401 9.31691 56.5621 9.50976C56.6598 9.6264 56.707 9.77665 56.6936 9.92777C56.6659 10.2537 56.5574 10.5678 56.3779 10.8422C56.2378 11.077 56.1147 11.3215 56.0096 11.5737C55.5624 12.3836 55.3256 13.0629 55.3256 13.6376C55.2964 13.9321 55.3708 14.2275 55.5361 14.4736C55.6572 14.6655 55.8305 14.8195 56.0359 14.9178C56.1466 14.958 56.2404 15.0339 56.3024 15.1334C56.3644 15.2329 56.391 15.3501 56.3779 15.4664C56.3779 15.7016 56.1938 15.8583 55.7992 15.9367C55.6841 15.8792 55.5592 15.8437 55.4309 15.8322L55.0626 15.6754C54.9416 15.6076 54.8415 15.5082 54.7732 15.388C54.4813 15.043 54.3145 14.6106 54.2997 14.1601C54.3646 13.9471 54.4087 13.7284 54.4312 13.507ZM51.8268 3.94498C52.3172 3.55253 52.7204 3.06323 53.0106 2.50807C53.2867 2.00484 53.4987 1.46952 53.642 0.9144C53.6683 0.313508 53.9577 0 54.4312 0C54.9047 0 54.9836 0.261263 54.9836 0.757652C54.8931 1.48678 54.6318 2.18469 54.2207 2.79545C53.8102 3.47999 53.3055 4.10431 52.7212 4.65038C52.3266 4.99001 52.0898 5.14677 51.932 5.14677C51.8694 5.14008 51.8089 5.12033 51.7545 5.08881C51.7001 5.0573 51.653 5.01472 51.6163 4.96388C51.5626 4.91409 51.5206 4.85317 51.4934 4.78543C51.4661 4.7177 51.4542 4.64482 51.4585 4.572C51.4971 4.32432 51.6287 4.10032 51.8268 3.94498ZM45.855 9.53588C45.6617 9.40724 45.4284 9.35163 45.1973 9.37913C44.9499 9.38634 44.7068 9.44601 44.4845 9.55416C44.2622 9.6623 44.0657 9.81641 43.9083 10.0061C43.5881 10.3047 43.3133 10.6479 43.0927 11.025C42.8587 11.4269 42.6564 11.8462 42.4877 12.2791C42.3653 12.651 42.2945 13.0377 42.2772 13.4286C42.3035 13.8466 42.4614 14.0818 42.6718 14.1601C42.8823 14.2385 43.6452 13.6115 44.3555 12.5142C44.5518 12.1857 44.7275 11.8454 44.8816 11.4953C45.0658 11.1557 45.2762 10.7899 45.4604 10.398C45.6445 10.0061 45.7761 9.71876 45.855 9.53588ZM44.829 13.3764C44.0135 14.7872 43.2243 15.5448 42.4613 15.5709C41.6984 15.597 41.2512 14.8917 41.2512 13.7421C41.2542 12.9437 41.4433 12.1568 41.8037 11.4431C42.1535 10.6673 42.6142 9.94575 43.1716 9.30075C43.4812 9.01003 43.8367 8.77173 44.2239 8.59536C44.5541 8.38713 44.9378 8.27824 45.3289 8.28185C45.498 8.26539 45.6687 8.2823 45.8313 8.33163C45.9938 8.38095 46.1449 8.4617 46.2759 8.56923L48.5383 4.25849L49.5906 2.50807C49.8011 2.14231 50.0116 1.85492 50.1168 1.69817C50.1657 1.62306 50.2316 1.56034 50.3093 1.51498C50.3869 1.46963 50.4741 1.4429 50.564 1.43691C50.6445 1.43955 50.723 1.46254 50.792 1.50368C50.8611 1.54482 50.9184 1.60277 50.9586 1.67205C51.0633 1.78609 51.1199 1.93576 51.1165 2.09006C51.1044 2.27063 51.0598 2.4476 50.9849 2.61257L50.5377 3.29184C50.4044 3.47142 50.2898 3.66401 50.1957 3.86661C49.4591 5.04227 48.9856 5.85216 48.7488 6.2963C48.512 6.74043 48.1174 7.39358 47.6702 8.25572C47.2436 9.06881 46.8658 9.90631 46.539 10.7638C46.2406 11.4456 46.0455 12.1675 45.9602 12.9061C45.9611 13.0903 45.9435 13.274 45.9076 13.4547C45.9602 14.1079 46.1181 14.552 46.3811 14.7088C46.4728 14.7734 46.5529 14.8529 46.6179 14.9439V15.1529C46.6179 15.2052 46.5916 15.2574 46.5916 15.3358C46.5703 15.3759 46.5612 15.4213 46.5653 15.4664C46.4623 15.6241 46.3022 15.7364 46.1181 15.7799C45.8953 15.74 45.6873 15.6414 45.5161 15.4943C45.3449 15.3472 45.2166 15.1571 45.1447 14.9439C44.9408 14.4459 44.8337 13.914 44.829 13.3764ZM32.3593 12.2268C32.6986 12.1243 33.0251 11.9841 33.3327 11.8088C33.6611 11.564 33.9691 11.2931 34.2535 10.9989C34.7533 10.5025 35.0427 10.0845 35.069 9.82327C35.0953 9.56201 35.0164 9.43138 34.8585 9.43138C34.7007 9.43138 34.2798 9.66652 33.8589 10.0323C33.5077 10.3521 33.2062 10.7218 32.9644 11.1296C32.6945 11.4539 32.4891 11.8263 32.3593 12.2268ZM32.0963 13.1412C32.0963 13.8205 32.4909 14.2124 33.2012 14.2646C33.7815 14.1963 34.3343 13.9804 34.8059 13.6376C35.416 13.1411 35.9958 12.6089 36.5422 12.044L36.7 11.8611C36.7565 11.7928 36.8287 11.739 36.9105 11.7043C36.935 11.6719 36.9668 11.6455 37.0033 11.6274C37.0398 11.6093 37.0801 11.5998 37.121 11.5998C37.1648 11.6001 37.2076 11.6125 37.2448 11.6356C37.282 11.6586 37.3119 11.6915 37.3314 11.7304C37.3621 11.7507 37.3875 11.7778 37.4058 11.8095C37.4241 11.8413 37.4346 11.8768 37.4367 11.9133C37.4367 11.9394 37.4103 12.0178 37.4103 12.044C37.4008 12.0546 37.3936 12.067 37.3891 12.0805C37.3845 12.0939 37.3828 12.1082 37.384 12.1223C37.1269 12.6394 36.7587 13.0942 36.3054 13.4547C35.6921 14.0102 35.022 14.5006 34.3061 14.9178C33.7832 15.2106 33.1962 15.372 32.5961 15.388C31.4649 15.3097 30.9124 14.7349 30.9124 13.6376C30.925 12.9268 31.1052 12.2289 31.4386 11.5998C31.7368 10.9716 32.1269 10.3906 32.5961 9.87552C33.701 8.80437 34.6218 8.25572 35.3321 8.25572C36.0424 8.25572 36.1739 8.51698 36.1739 9.09175C36.1378 9.61026 35.9554 10.1082 35.6477 10.5287C34.8213 11.7976 33.5594 12.7259 32.0963 13.1412ZM32.4909 4.572C32.5903 4.43345 32.7201 4.31913 32.8705 4.23767C33.0208 4.15621 33.1879 4.10973 33.359 4.10174C33.4432 4.08949 33.5292 4.10001 33.6079 4.13219C33.6866 4.16438 33.7551 4.21704 33.8062 4.28462C33.8062 4.32946 33.8152 4.37386 33.8325 4.41525C33.8325 4.51975 33.8589 4.572 33.8589 4.65038C33.8395 5.04559 33.6703 5.4189 33.3853 5.69541C33.2751 5.85589 33.1308 5.99049 32.9627 6.08977C32.7945 6.18906 32.6066 6.25063 32.4119 6.27017C32.3281 6.26774 32.2467 6.24196 32.1769 6.19577C32.1071 6.14957 32.0518 6.08482 32.0173 6.00891C31.9881 5.93647 31.9529 5.86657 31.9121 5.79991C31.9879 5.3456 32.1881 4.92077 32.4909 4.572ZM30.4652 8.93499C30.702 8.62148 30.9387 8.43861 31.1229 8.43861C31.2408 8.44157 31.3534 8.48816 31.4386 8.56923C31.4822 8.59896 31.519 8.63768 31.5462 8.68276C31.5734 8.72785 31.5906 8.77824 31.5964 8.83049C31.5326 9.08385 31.406 9.31735 31.2281 9.50976C30.8184 10.052 30.4575 10.629 30.1495 11.2341C29.8075 11.8611 29.5181 12.5142 29.2288 13.1674C28.9858 13.7181 28.7836 14.2856 28.6237 14.8655C28.4658 15.3358 28.3343 15.6232 28.1765 15.6754L27.9397 15.7799C27.5977 15.7016 27.4399 15.4925 27.4399 15.0484C27.4399 14.6043 27.9397 13.3764 28.5711 12.0701C29.1095 10.9724 29.7433 9.92336 30.4652 8.93499ZM24.7828 11.5998C24.4705 12.2895 24.2239 13.0068 24.0462 13.7421C24.0462 13.8989 24.1514 13.9773 24.3619 14.0034C24.6741 13.9615 24.9622 13.8138 25.1774 13.5854C25.4397 13.3362 25.6695 13.0553 25.8614 12.7493C26.0456 12.4358 26.2297 12.1223 26.4139 11.8611C26.598 11.5998 26.7559 11.4692 26.9137 11.4692C27.0716 11.4692 27.0453 11.5476 27.1242 11.5998C27.1745 11.6779 27.2019 11.7684 27.2031 11.8611C27.1805 11.9978 27.1361 12.1301 27.0716 12.253C26.8153 12.7564 26.516 13.2372 26.1771 13.6899C25.877 14.1159 25.5234 14.5022 25.1248 14.8394C24.7518 15.1494 24.2935 15.3406 23.8094 15.388C23.2833 15.3358 22.9676 14.9962 22.8887 14.3953C22.9093 14.0687 22.9621 13.7449 23.0465 13.4286C23.5734 11.7517 24.2513 10.1253 25.0722 8.56923C25.8811 6.87649 26.8407 5.25896 27.9397 3.73598C28.9131 2.32519 29.8075 1.38466 30.4915 0.940527C30.7383 0.762174 31.0293 0.653812 31.3333 0.627023C31.4526 0.624626 31.5705 0.652089 31.6763 0.70688C31.782 0.761671 31.8722 0.842022 31.9384 0.940527C32.1052 1.12833 32.1986 1.36938 32.2015 1.6198C32.1763 1.96401 32.0871 2.30061 31.9384 2.61257C31.6472 3.34201 31.286 4.04193 30.8598 4.70263C30.3863 5.43415 29.8601 6.16567 29.2551 6.92331C28.6229 7.71778 27.9467 8.47661 27.2294 9.19625C26.5196 9.93885 25.764 10.6369 24.967 11.2863L24.7828 11.5998ZM25.6247 9.61426C26.4152 8.98457 27.1381 8.27541 27.7819 7.49808C28.5339 6.60209 29.2281 5.65968 29.8601 4.67651C30.323 4.00906 30.6863 3.2787 30.9387 2.50807V2.24681C30.9387 2.09006 30.8335 2.01168 30.6494 2.01168C30.4251 2.10422 30.22 2.23707 30.0443 2.40357C29.6956 2.75871 29.3787 3.14334 29.0972 3.5531C28.6874 4.10603 28.3098 4.68174 27.966 5.2774C27.5451 5.93054 27.1768 6.60981 26.7559 7.36745C26.335 8.1251 25.9667 8.90887 25.6247 9.61426ZM14.7071 21.4753C14.2897 21.7918 13.7848 21.9741 13.2602 21.9978C13.0953 22.0079 12.9302 21.9828 12.776 21.9242C12.6217 21.8656 12.4818 21.7749 12.3658 21.6582C12.2427 21.5252 12.1488 21.3683 12.09 21.1974C12.0311 21.0265 12.0086 20.8454 12.0238 20.6654C12.0109 20.0455 12.1849 19.4359 12.5236 18.915C12.8713 18.3604 13.3276 17.8807 13.8653 17.5042C14.2966 17.1568 14.7539 16.8424 15.2333 16.5637L17.3905 15.4664L17.864 14.5259C17.9955 14.2385 18.0744 13.9773 18.1797 13.7944V13.7421C17.5483 14.5259 16.8906 14.9439 16.154 15.0223C15.4174 15.1007 15.2333 14.5259 15.2333 13.8205C15.2333 13.1151 15.7857 11.5998 16.8117 10.1629C17.3398 9.44852 17.9792 8.82234 18.7058 8.30798C19.1832 7.9758 19.7332 7.76091 20.3106 7.68096C20.9946 7.68096 21.3366 8.04672 21.3366 8.77824C21.3194 9.21338 21.212 9.64032 21.0209 10.0323L21.205 10.2935C21.2067 10.3137 21.2161 10.3324 21.2313 10.3458V10.398C21.1754 10.5993 21.0767 10.7864 20.9419 10.9467C20.7315 11.2341 20.4684 11.6259 20.1264 12.1746C19.7844 12.7232 19.4424 13.4286 19.0215 14.2908V14.3953C20.3058 13.4969 21.3747 12.3284 22.1521 10.9728C22.1865 10.8894 22.2401 10.8153 22.3086 10.7563C22.3772 10.6973 22.4587 10.6551 22.5467 10.6332L22.7308 10.7115C22.7878 10.7963 22.8155 10.8972 22.8098 10.9989C22.7249 11.3422 22.5826 11.669 22.3889 11.9656C22.0945 12.4372 21.7601 12.883 21.3892 13.298C20.969 13.8106 20.4925 14.275 19.9686 14.6826C19.4214 15.151 18.821 15.5543 18.1797 15.8844C16.9432 18.6538 15.7857 20.5087 14.7071 21.4753ZM18.9426 11.6521L18.7058 11.3908C18.7911 11.2532 18.8976 11.1298 19.0215 11.025C19.2301 10.8886 19.4164 10.7212 19.574 10.5287C19.7661 10.2751 19.9335 10.0039 20.0738 9.71876C20.1253 9.57504 20.1606 9.42608 20.179 9.27462C20.179 9.06562 20.0738 8.96112 19.8897 8.96112C19.7055 8.96112 19.232 9.22237 18.6795 9.69264C17.3291 10.9989 16.5662 12.253 16.3908 13.4547C16.3754 13.5618 16.4025 13.6707 16.4663 13.7584C16.53 13.8461 16.6256 13.9058 16.7328 13.925C17.522 13.7421 18.2849 12.9845 18.9426 11.6521ZM16.7065 16.7466C16.1 16.979 15.5391 17.315 15.0491 17.7394C14.5261 18.1491 14.0575 18.6231 13.6548 19.1501C13.3568 19.4962 13.1731 19.9249 13.1287 20.378C13.1287 20.6567 13.2339 20.8135 13.4444 20.8483C13.6076 20.8347 13.7665 20.7884 13.9112 20.712C14.0559 20.6357 14.1835 20.531 14.2862 20.4042C14.6237 20.0719 14.9236 19.7039 15.1806 19.3069C15.4289 18.954 15.6573 18.5877 15.8646 18.2096C16.0751 17.8961 16.3119 17.4258 16.7065 16.7466ZM14.4966 7.86384C15.0754 7.88996 15.3911 8.30798 15.3911 9.09175C15.3911 9.87552 15.1543 10.607 14.6808 11.6521C14.2239 12.643 13.6307 13.5662 12.9182 14.3953C12.2868 15.179 11.6028 15.5448 10.9715 15.5448C10.3401 15.5448 9.78763 14.9962 9.76133 14.0034C9.73502 13.0106 10.2349 11.7043 11.0767 10.4764C11.3753 10.0099 11.7286 9.58022 12.129 9.19625C12.4711 8.82262 12.8707 8.50517 13.3128 8.25572C13.6626 8.01747 14.0728 7.88167 14.4966 7.86384ZM13.2602 12.253C13.1318 12.1858 13.023 12.0868 12.9445 11.9656C13.0487 11.7207 13.2007 11.4987 13.3917 11.3124C13.6339 11.0154 13.8537 10.701 14.0494 10.3719C14.2194 10.1412 14.328 9.87162 14.3651 9.58814C14.3651 9.30075 14.2336 9.144 14.0231 9.144C13.8045 9.15776 13.5986 9.25072 13.4444 9.40525C12.7549 9.92179 12.1664 10.5593 11.7081 11.2863C11.2376 11.98 10.9483 12.7791 10.8662 13.6115C10.8905 13.7763 10.9439 13.9355 11.0241 14.0818C11.1314 14.1695 11.2573 14.2321 11.3924 14.2646C11.7705 14.2004 12.1094 13.9947 12.3394 13.6899C12.7319 13.2706 13.0439 12.7836 13.2602 12.253ZM6.47291 2.40357C6.23614 2.40357 6.13091 2.29907 6.0783 2.01168C6.09079 1.83868 6.15888 1.67424 6.27254 1.54255C6.3862 1.41086 6.53943 1.31889 6.70967 1.28017C7.34329 1.05398 7.99434 0.879231 8.65642 0.757652C9.44564 0.600898 10.2349 0.444142 10.9715 0.339639C11.7081 0.235136 12.2868 0.182883 12.6025 0.182883C13.5759 0.182883 14.0757 0.418013 14.0757 0.809898C14.0893 0.903818 14.0769 0.99965 14.0399 1.0871C14.0028 1.17455 13.9424 1.25032 13.8653 1.30629C13.799 1.37985 13.718 1.4388 13.6273 1.4793C13.5367 1.5198 13.4385 1.54097 13.3391 1.54142C13.0233 1.45039 12.6939 1.41502 12.3658 1.43691C11.7826 1.44465 11.2013 1.50587 10.6295 1.6198L8.26181 2.16844C7.84741 2.66955 7.46099 3.19285 7.10428 3.73598C6.65706 4.363 6.28876 4.96388 5.92045 5.4864C5.55215 6.00891 5.368 6.47917 5.21016 6.79268C6.30998 6.54562 7.42671 6.3797 8.55119 6.2963C9.3141 6.2963 9.68241 6.45305 9.70871 6.71431C9.73502 6.97557 9.6561 7.21069 9.52456 7.3152C9.30873 7.40549 9.07376 7.4414 8.84057 7.41971C7.29554 7.53509 5.76871 7.82432 4.2894 8.28185C3.55279 9.50976 2.71096 11.4169 1.71128 13.9773C1.71128 14.0034 1.60605 14.2646 1.47452 14.7349C1.37208 15.0559 1.24906 15.37 1.10621 15.6754C1.05052 15.7376 0.981305 15.7864 0.903823 15.818C0.826341 15.8497 0.742616 15.8635 0.658986 15.8583C0.563736 15.8476 0.472001 15.8163 0.390204 15.7666C0.308407 15.717 0.238528 15.6502 0.185457 15.5709C0.054453 15.3788 -0.0101751 15.1496 0.00130239 14.9178C0.0940483 14.4317 0.244162 13.9582 0.44853 13.507C0.764219 12.6971 1.13252 11.8611 1.57974 10.9467C2.02697 10.0323 2.5005 9.144 3.02665 8.25572C3.55279 7.36745 4.15786 6.27017 4.89447 5.04227C5.63108 3.81436 6.15722 2.97833 6.47291 2.40357Z" fill="#2C2E38"/>
</svg>
