<svg width="78" height="82" viewBox="0 0 78 82" fill="none" xmlns="http://www.w3.org/2000/svg">
<path d="M77 49.7539C77 66.8747 63.1208 80.7539 46 80.7539C28.8792 80.7539 15 66.8747 15 49.7539C15 32.6331 28.8792 18.7539 46 18.7539C63.1208 18.7539 77 32.6331 77 49.7539Z" fill="#AD977B" fill-opacity="0.7" stroke="url(#paint0_linear)" stroke-width="2"/>
<g clip-path="url(#clip0)">
<path d="M45.5894 17.321C45.5339 17.321 45.5339 17.2655 45.4784 17.21C45.4229 17.1545 45.4229 17.099 45.3674 17.0435L35.8223 6.33297C35.7668 6.27748 35.6558 6.22198 35.6003 6.16649C35.5448 6.16649 35.5448 6.11099 35.4893 6.11099C35.3783 6.0555 35.2118 6 35.0453 6H11.6264C8.18572 6 5.35547 8.83025 5.35547 12.2709V50.729C5.35547 54.1697 8.18572 57 11.6264 57H39.374C42.8147 57 45.6449 54.1697 45.6449 50.729V17.7095C45.6449 17.5985 45.5894 17.432 45.5894 17.321ZM36.0998 9.77367L42.2597 16.7106H36.0998V9.77367ZM43.5361 50.6736C43.5361 53.0043 41.7048 54.8912 39.374 54.8912H11.6264C9.29562 54.8912 7.46428 53.0043 7.46428 50.729V12.2155C7.46428 9.88466 9.35112 8.05332 11.6264 8.05332H33.9909V17.7095C33.9909 18.2644 34.4349 18.7639 35.0453 18.7639H43.5361V50.6736Z" fill="#2C2E38"/>
<path d="M39.012 22.4115C38.7863 22.0188 38.2848 21.8835 37.892 22.1093L34.0523 24.3173L34.405 23.0386C34.5255 22.6019 34.2691 22.1502 33.8324 22.0298C33.3953 21.9092 32.9439 22.1657 32.8235 22.6024L32.3746 24.2296C32.2131 24.8152 32.419 25.4339 32.8992 25.8059C33.3553 26.1592 34.0293 26.2232 34.5567 25.9198L38.7098 23.5316C39.1026 23.3057 39.2379 22.8042 39.012 22.4115Z" fill="#2C2E38"/>
<path d="M39.012 28.4115C38.7863 28.0188 38.2848 27.8835 37.892 28.1093L34.0523 30.3173L34.405 29.0386C34.5255 28.6019 34.2691 28.1502 33.8324 28.0298C33.3953 27.9092 32.9439 28.1657 32.8235 28.6024L32.3746 30.2296C32.2131 30.8152 32.419 31.4339 32.8992 31.8059C33.3553 32.1592 34.0293 32.2232 34.5567 31.9198L38.7098 29.5316C39.1026 29.3057 39.2379 28.8042 39.012 28.4115Z" fill="#2C2E38"/>
<path d="M39.012 34.4115C38.7863 34.0188 38.2848 33.8835 37.892 34.1093L34.0523 36.3173L34.405 35.0386C34.5255 34.6019 34.2691 34.1502 33.8324 34.0298C33.3953 33.9092 32.9439 34.1657 32.8235 34.6024L32.3746 36.2296C32.2131 36.8152 32.419 37.4339 32.8992 37.8059C33.3553 38.1592 34.0293 38.2232 34.5567 37.9198L38.7098 35.5316C39.1026 35.3057 39.2379 34.8042 39.012 34.4115Z" fill="#2C2E38"/>
<path d="M39.012 40.4115C38.7863 40.0188 38.2848 39.8835 37.892 40.1093L34.0523 42.3173L34.405 41.0386C34.5255 40.6019 34.2691 40.1502 33.8324 40.0298C33.3953 39.9092 32.9439 40.1657 32.8235 40.6024L32.3746 42.2296C32.2131 42.8152 32.419 43.4339 32.8992 43.8059C33.3553 44.1592 34.0293 44.2232 34.5567 43.9198L38.7098 41.5316C39.1026 41.3057 39.2379 40.8042 39.012 40.4115Z" fill="#2C2E38"/>
<rect x="12" y="17" width="12" height="2" rx="1" fill="#2C2E38"/>
<rect x="12" y="24" width="17" height="2" rx="1" fill="#2C2E38"/>
<rect x="12" y="30" width="17" height="2" rx="1" fill="#2C2E38"/>
<rect x="12" y="36" width="17" height="2" rx="1" fill="#2C2E38"/>
<rect x="12" y="42" width="17" height="2" rx="1" fill="#2C2E38"/>
</g>
<defs>
<linearGradient id="paint0_linear" x1="48.5387" y1="50.3107" x2="49.6522" y2="51.849" gradientUnits="userSpaceOnUse">
<stop stop-color="#AD977B" stop-opacity="0.33"/>
<stop offset="1" stop-color="#2C2E38"/>
</linearGradient>
<clipPath id="clip0">
<rect y="6" width="51" height="51" fill="white"/>
</clipPath>
</defs>
</svg>
