<svg width="86" height="82" viewBox="0 0 86 82" fill="none" xmlns="http://www.w3.org/2000/svg">
<path d="M85 49.7539C85 66.8747 71.1208 80.7539 54 80.7539C36.8792 80.7539 23 66.8747 23 49.7539C23 32.6331 36.8792 18.7539 54 18.7539C71.1208 18.7539 85 32.6331 85 49.7539Z" fill="#AD977B" fill-opacity="0.7" stroke="url(#paint0_linear)" stroke-width="2"/>
<path d="M57.25 15.8438H42.0833V14.7605C42.077 9.37822 37.7156 5.01685 32.3333 5.0105H11.75C6.36772 5.01685 2.00635 9.37822 2 14.7605V27.7605C2.00635 33.1428 6.36772 37.5042 11.75 37.5105H12.8333V46.1772C12.8333 46.6152 13.0973 47.0103 13.502 47.178C13.9066 47.3457 14.3726 47.2526 14.6826 46.9431L24.1152 37.5105H26.9167V38.5938C26.923 43.9761 31.2844 48.3375 36.6667 48.3438H42.7181L54.3174 59.9431C54.6274 60.2526 55.0934 60.3457 55.4981 60.178C55.9027 60.0103 56.1667 59.6152 56.1667 59.1772V48.3438H57.25C62.6323 48.3375 66.9937 43.9761 67 38.5938V25.5938C66.9937 20.2115 62.6323 15.8502 57.25 15.8438ZM23.6667 35.3438C23.3794 35.3438 23.1038 35.4581 22.9007 35.6612L15 43.5619V36.4272C15 35.8289 14.5149 35.3438 13.9167 35.3438H11.75C7.56372 35.3391 4.17143 31.9468 4.16667 27.7605V14.7605C4.17143 10.5742 7.56372 7.18193 11.75 7.17717H32.3333C36.5196 7.18193 39.9119 10.5742 39.9167 14.7605V15.8438H36.6667C31.2844 15.8502 26.923 20.2115 26.9167 25.5938V35.3438H23.6667ZM64.8333 38.5938C64.8286 42.7801 61.4363 46.1724 57.25 46.1772H55.0833C54.4851 46.1772 54 46.6622 54 47.2605V56.5619L43.9326 46.4946C43.7295 46.2914 43.4539 46.1772 43.1667 46.1772H36.6667C32.4804 46.1724 29.0881 42.7801 29.0833 38.5938V25.5938C29.0881 21.4076 32.4804 18.0153 36.6667 18.0105H57.25C61.4363 18.0153 64.8286 21.4076 64.8333 25.5938V38.5938Z" fill="#2C2E38"/>
<path d="M59.416 24.5105H34.4993C33.9011 24.5105 33.416 24.9956 33.416 25.5938C33.416 26.1921 33.9011 26.6772 34.4993 26.6772H59.416C60.0143 26.6772 60.4993 26.1921 60.4993 25.5938C60.4993 24.9956 60.0143 24.5105 59.416 24.5105Z" fill="#2C2E38"/>
<path d="M59.416 31.0103H34.4993C33.9011 31.0103 33.416 31.4953 33.416 32.0936C33.416 32.6918 33.9011 33.1769 34.4993 33.1769H59.416C60.0143 33.1769 60.4993 32.6918 60.4993 32.0936C60.4993 31.4953 60.0143 31.0103 59.416 31.0103Z" fill="#2C2E38"/>
<path d="M59.416 37.5105H34.4993C33.9011 37.5105 33.416 37.9956 33.416 38.5938C33.416 39.1921 33.9011 39.6772 34.4993 39.6772H59.416C60.0143 39.6772 60.4993 39.1921 60.4993 38.5938C60.4993 37.9956 60.0143 37.5105 59.416 37.5105Z" fill="#2C2E38"/>
<path d="M8.5013 15.8439H31.2513C31.8496 15.8439 32.3346 15.3588 32.3346 14.7606C32.3346 14.1623 31.8496 13.6772 31.2513 13.6772H8.5013C7.90304 13.6772 7.41797 14.1623 7.41797 14.7606C7.41797 15.3588 7.90304 15.8439 8.5013 15.8439Z" fill="#2C2E38"/>
<path d="M24.7513 20.177H8.5013C7.90304 20.177 7.41797 20.6621 7.41797 21.2603C7.41797 21.8586 7.90304 22.3437 8.5013 22.3437H24.7513C25.3496 22.3437 25.8346 21.8586 25.8346 21.2603C25.8346 20.6621 25.3496 20.177 24.7513 20.177Z" fill="#2C2E38"/>
<path d="M23.668 26.677H8.5013C7.90304 26.677 7.41797 27.1621 7.41797 27.7603C7.41797 28.3586 7.90304 28.8437 8.5013 28.8437H23.668C24.2662 28.8437 24.7513 28.3586 24.7513 27.7603C24.7513 27.1621 24.2662 26.677 23.668 26.677Z" fill="#2C2E38"/>
<defs>
<linearGradient id="paint0_linear" x1="56.5387" y1="50.3107" x2="57.6522" y2="51.849" gradientUnits="userSpaceOnUse">
<stop stop-color="#AD977B" stop-opacity="0.33"/>
<stop offset="1" stop-color="#2C2E38"/>
</linearGradient>
</defs>
</svg>
