<svg width="78" height="82" viewBox="0 0 78 82" fill="none" xmlns="http://www.w3.org/2000/svg">
<path d="M77 49.7539C77 66.8747 63.1208 80.7539 46 80.7539C28.8792 80.7539 15 66.8747 15 49.7539C15 32.6331 28.8792 18.7539 46 18.7539C63.1208 18.7539 77 32.6331 77 49.7539Z" fill="#AD977B" fill-opacity="0.7" stroke="url(#paint0_linear)" stroke-width="2"/>
<g clip-path="url(#clip0)">
<path d="M45.5894 17.321C45.5339 17.321 45.5339 17.2655 45.4784 17.21C45.4229 17.1545 45.4229 17.099 45.3674 17.0435L35.8223 6.33297C35.7668 6.27748 35.6558 6.22198 35.6003 6.16649C35.5448 6.16649 35.5448 6.11099 35.4893 6.11099C35.3783 6.0555 35.2118 6 35.0453 6H11.6264C8.18572 6 5.35547 8.83025 5.35547 12.2709V50.729C5.35547 54.1697 8.18572 57 11.6264 57H39.374C42.8147 57 45.6449 54.1697 45.6449 50.729V17.7095C45.6449 17.5985 45.5894 17.432 45.5894 17.321ZM36.0998 9.77367L42.2597 16.7106H36.0998V9.77367ZM43.5361 50.6736C43.5361 53.0043 41.7048 54.8912 39.374 54.8912H11.6264C9.29562 54.8912 7.46428 53.0043 7.46428 50.729V12.2155C7.46428 9.88466 9.35112 8.05332 11.6264 8.05332H33.9909V17.7095C33.9909 18.2644 34.4349 18.7639 35.0453 18.7639H43.5361V50.6736Z" fill="#2C2E38"/>
<rect x="12" y="17" width="12" height="2" rx="1" fill="#2C2E38"/>
<rect x="12" y="24" width="26" height="2" rx="1" fill="#2C2E38"/>
<rect x="12" y="30" width="26" height="2" rx="1" fill="#2C2E38"/>
<rect x="12" y="36" width="26" height="2" rx="1" fill="#2C2E38"/>
<rect x="12" y="42" width="17" height="2" rx="1" fill="#2C2E38"/>
</g>
<defs>
<linearGradient id="paint0_linear" x1="48.5387" y1="50.3107" x2="49.6522" y2="51.849" gradientUnits="userSpaceOnUse">
<stop stop-color="#AD977B" stop-opacity="0.33"/>
<stop offset="1" stop-color="#2C2E38"/>
</linearGradient>
<clipPath id="clip0">
<rect y="6" width="51" height="51" fill="white"/>
</clipPath>
</defs>
</svg>
