<svg width="24" height="24" viewBox="0 0 24 24" fill="none" xmlns="http://www.w3.org/2000/svg">
<path d="M2.12278 3.43979L10.683 12L2.12277 21.8772C2.12277 21.8772 2.12278 21.8772 2.12278 21.8772C2.30459 22.059 2.5432 22.1499 2.7813 22.1499C3.0194 22.1499 3.25797 22.059 3.43981 21.8772L3.43982 21.8772L12 13.317L20.5602 21.8772C20.742 22.059 20.9806 22.1499 21.2187 22.1499C21.4568 22.1499 21.6954 22.059 21.8772 21.8772L21.8772 21.8772C22.2409 21.5135 22.2409 20.9239 21.8772 20.5602L13.317 12L21.8772 3.43978C22.2409 3.07609 22.2409 2.48643 21.8772 2.12276C21.5135 1.75913 20.9239 1.75906 20.5602 2.12278L12 10.683L3.43978 2.12277C3.07609 1.75908 2.48643 1.75907 2.12276 2.12278C1.75913 2.48646 1.75906 3.07611 2.12277 3.43978C2.12277 3.43978 2.12278 3.43979 2.12278 3.43979Z" fill="#2C2E38" stroke="#2C2E38" stroke-width="0.3"/>
</svg>
