<svg width="137" height="35" viewBox="0 0 137 35" fill="none" xmlns="http://www.w3.org/2000/svg">
<path d="M135.533 12.5107C136.497 12.5522 137 13.2172 137 14.4641C137 15.7111 136.581 16.8748 135.827 18.5374C135.099 20.1139 134.154 21.5826 133.019 22.9016C132.013 24.1485 130.965 24.7304 129.959 24.7304C128.954 24.7304 128.032 23.8575 127.99 22.2781C127.948 20.6987 128.744 18.6205 130.085 16.667C130.561 15.9249 131.124 15.2413 131.761 14.6304C132.306 14.036 132.943 13.531 133.647 13.1341C134.208 12.7609 134.859 12.5454 135.533 12.5107ZM133.564 19.4933C133.359 19.3865 133.186 19.229 133.061 19.0361C133.227 18.6465 133.469 18.2933 133.773 17.9971C134.173 17.535 134.524 17.0336 134.821 16.5008C135.092 16.1337 135.265 15.7048 135.324 15.2539C135.324 14.7967 135.114 14.5473 134.779 14.5473C134.432 14.5763 134.107 14.7231 133.857 14.9629C132.758 15.7847 131.821 16.7989 131.091 17.9555C130.342 19.0591 129.881 20.3304 129.75 21.6546C129.789 21.9168 129.874 22.1701 130.001 22.4028C130.172 22.5425 130.373 22.6419 130.588 22.6937C131.19 22.5915 131.73 22.2643 132.097 21.7793C132.722 21.1122 133.219 20.3375 133.564 19.4933ZM119.399 18.2464V18.3711C120.171 17.4771 121.012 16.6434 121.913 15.8773C122.878 15.0075 123.9 14.2022 124.972 13.4666C125.275 13.2881 125.598 13.1484 125.936 13.051C126.1 13.0857 126.247 13.1734 126.355 13.3004C126.506 13.4584 126.595 13.6648 126.607 13.8823C126.607 13.9238 126.565 13.9654 126.565 14.0069C126.538 14.0429 126.523 14.0867 126.523 14.1316C126.314 14.5051 126.045 14.842 125.727 15.1292L124.595 16.0436C124.324 16.326 124.123 16.6676 124.008 17.0411C124.008 17.2489 124.218 17.4152 124.553 17.4983L125.852 16.8748C126.292 16.711 126.714 16.502 127.11 16.2514C127.324 16.1057 127.567 16.0066 127.822 15.9604C127.881 15.9599 127.94 15.975 127.991 16.0042C128.043 16.0334 128.086 16.0757 128.115 16.1267C128.241 16.2098 128.325 16.2929 128.325 16.4176C128.275 16.7612 128.095 17.0731 127.822 17.2905C126.313 18.6621 124.847 19.2855 123.547 19.2855C122.248 19.2855 122.165 18.953 122.081 18.2464C122.074 17.8084 122.222 17.3818 122.5 17.0411H122.458C121.217 18.069 120.106 19.2412 119.147 20.5324C118.303 21.5971 117.586 22.7547 117.01 23.9822L116.758 24.4394C116.67 24.6109 116.572 24.7773 116.465 24.9382L116.046 25.2291L115.711 25.3954C115.208 25.2845 114.956 25.0352 114.956 24.6472C114.982 24.276 115.066 23.9112 115.208 23.5666C115.543 22.569 116.004 21.4468 116.549 20.1584C117.094 18.8699 117.68 17.7061 118.267 16.5839C118.746 15.6974 119.353 14.8853 120.069 14.1732C120.243 14.0721 120.411 13.961 120.572 13.8407C120.753 13.769 120.923 13.6709 121.075 13.5497C121.26 13.5672 121.435 13.6396 121.578 13.7576C121.658 13.792 121.726 13.8507 121.771 13.9253C121.816 13.9998 121.836 14.0865 121.829 14.1732C121.845 14.3808 121.786 14.5872 121.662 14.7551C121.396 15.1763 121.102 15.579 120.782 15.9604C120.455 16.3668 120.161 16.7976 119.901 17.2489C119.676 17.5644 119.505 17.9158 119.399 18.288V18.2464ZM115.124 12.5522C116.046 12.5938 116.549 13.2588 116.549 14.5057C116.549 15.7526 116.172 16.9164 115.417 18.5789C114.689 20.1555 113.744 21.6242 112.609 22.9431C111.604 24.19 110.514 24.7719 109.508 24.7719C108.502 24.7719 107.622 23.8991 107.58 22.3197C107.539 20.7402 108.335 18.6621 109.676 16.7086C110.152 15.9665 110.714 15.2828 111.352 14.672C111.897 14.0775 112.534 13.5725 113.238 13.1757C113.795 12.7966 114.449 12.5806 115.124 12.5522ZM113.154 19.5349C112.95 19.428 112.776 19.2706 112.651 19.0777C112.817 18.6881 113.059 18.3349 113.364 18.0386C113.75 17.566 114.1 17.0659 114.411 16.5423C114.682 16.1753 114.855 15.7464 114.914 15.2954C114.914 14.8382 114.705 14.5888 114.37 14.5888C114.021 14.6107 113.693 14.7586 113.448 15.0045C112.353 15.8139 111.416 16.8138 110.682 17.9555C109.932 19.0591 109.471 20.3304 109.341 21.6546C109.379 21.9168 109.464 22.1701 109.592 22.4028C109.763 22.5425 109.964 22.6419 110.179 22.6937C110.781 22.5915 111.321 22.2643 111.687 21.7793C112.313 21.1122 112.81 20.3375 113.154 19.4933V19.5349ZM102.803 18.4543C102.305 19.5515 101.913 20.6926 101.629 21.8625C101.629 22.1118 101.797 22.2365 102.132 22.2781C102.63 22.2114 103.089 21.9765 103.432 21.6131C103.848 21.2264 104.202 20.7777 104.479 20.2831L105.401 18.8699C105.695 18.4543 105.946 18.2464 106.197 18.2464C106.449 18.2464 106.407 18.3711 106.491 18.4543C106.545 18.5091 106.588 18.5741 106.617 18.6454C106.645 18.7168 106.66 18.7931 106.658 18.8699C106.622 19.0874 106.552 19.2979 106.449 19.4933C106.028 20.296 105.537 21.0609 104.982 21.7793C104.519 22.4564 103.97 23.0711 103.348 23.6081C102.738 24.1023 101.994 24.4061 101.21 24.481C100.414 24.3979 99.9112 23.8575 99.7855 22.9016C99.8183 22.382 99.9025 21.8669 100.037 21.3637C100.86 18.6963 101.926 16.1087 103.222 13.6329C104.54 10.947 106.082 8.37497 107.832 5.9436C109.382 3.69917 110.765 2.20287 111.897 1.49629C112.286 1.20462 112.752 1.03134 113.238 0.997537C113.428 0.993724 113.616 1.03741 113.784 1.12458C113.953 1.21175 114.096 1.33958 114.202 1.49629C114.468 1.79507 114.616 2.17857 114.621 2.57695C114.581 3.12457 114.439 3.66006 114.202 4.15636C113.721 5.30906 113.146 6.42108 112.484 7.48145C111.729 8.64523 110.891 9.80901 109.927 11.0144C108.92 12.2783 107.843 13.4855 106.7 14.6304C105.57 15.8118 104.366 16.9223 103.096 17.9555L102.803 18.4543ZM104.144 15.2954C105.403 14.2936 106.555 13.1654 107.58 11.9288C108.779 10.5033 109.884 9.00403 110.891 7.4399C111.628 6.37805 112.207 5.21611 112.609 3.99011V3.57447C112.609 3.32509 112.442 3.2004 112.148 3.2004C111.785 3.33661 111.457 3.54932 111.185 3.82386C110.617 4.37804 110.111 4.99116 109.676 5.65265C109.023 6.53233 108.421 7.44822 107.874 8.39585C107.203 9.43495 106.617 10.5156 105.946 11.7209C105.275 12.9263 104.689 14.1732 104.144 15.2954ZM94.5889 18.4543C94.1099 19.5587 93.7176 20.6981 93.4155 21.8625C93.4155 22.1118 93.5831 22.2365 93.9184 22.2781C94.4249 22.2021 94.8942 21.9694 95.2594 21.6131C95.6639 21.2154 96.0159 20.7685 96.3071 20.2831C96.6005 19.7843 96.8938 19.2855 97.1872 18.8699C97.4806 18.4543 97.7739 18.2464 98.0254 18.2464C98.2768 18.2464 98.193 18.3711 98.3187 18.4543C98.3989 18.5784 98.4425 18.7224 98.4445 18.8699C98.4079 19.0823 98.3518 19.291 98.2768 19.4933C97.8555 20.296 97.3648 21.0609 96.81 21.7793C96.3319 22.4572 95.7686 23.0717 95.1337 23.6081C94.5438 24.1082 93.8113 24.4133 93.0383 24.481C92.242 24.3979 91.7391 23.8575 91.5715 22.9016C91.6248 22.3845 91.7087 21.871 91.823 21.3637C92.6622 18.6958 93.7422 16.1084 95.0499 13.6329C96.3545 10.9483 97.8824 8.37634 99.6179 5.9436C101.168 3.69917 102.593 2.20287 103.683 1.49629C104.088 1.20541 104.567 1.03266 105.066 0.997537C105.25 0.9969 105.43 1.04228 105.592 1.12948C105.753 1.21667 105.889 1.34285 105.988 1.49629C106.254 1.79507 106.402 2.17857 106.407 2.57695C106.367 3.12457 106.225 3.66006 105.988 4.15636C105.522 5.30864 104.962 6.42079 104.312 7.48145C103.557 8.64523 102.677 9.80901 101.713 11.0144C100.749 12.2197 99.6598 13.4666 98.5283 14.6304C97.3731 15.8019 96.156 16.9118 94.8822 17.9555L94.5889 18.4543ZM95.93 15.2954C97.1991 14.3045 98.3518 13.1752 99.3664 11.9288C100.564 10.5033 101.67 9.00403 102.677 7.4399C103.414 6.37805 103.993 5.21611 104.395 3.99011V3.57447C104.395 3.32509 104.228 3.2004 103.934 3.2004C103.577 3.34762 103.25 3.55898 102.971 3.82386C102.427 4.3997 101.923 5.01064 101.462 5.65265C100.917 6.44236 100.288 7.3152 99.6598 8.39585C99.0312 9.47651 98.4025 10.5156 97.7739 11.7209C97.1453 12.9263 96.5167 14.1732 95.93 15.2954ZM89.057 15.3785C88.9765 15.1339 88.8192 14.9212 88.608 14.7716C88.3969 14.6221 88.143 14.5434 87.8836 14.5473C87.3945 14.5681 86.9248 14.7428 86.5425 15.046C86.0657 15.4884 85.6178 15.9604 85.2015 16.4592C84.6488 17.259 84.1718 18.1078 83.7766 18.9946C83.3488 19.778 83.0918 20.6418 83.0222 21.53C83.0641 22.1534 83.2737 22.4859 83.5251 22.5275C83.7766 22.569 85.3691 21.6131 86.4587 19.6596C86.7602 18.9783 87.0959 18.3125 87.4645 17.6645C87.7058 17.1457 87.986 16.6455 88.3027 16.1683C88.4604 15.8304 88.7253 15.553 89.057 15.3785ZM86.7102 21.4884L86.5844 21.4053C86.2212 22.3042 85.6633 23.113 84.95 23.7744C84.4524 24.2874 83.7802 24.5985 83.0641 24.6472C81.8488 24.5225 81.2621 23.6913 81.2621 22.195C81.2881 21.137 81.5156 20.0934 81.9326 19.1193C82.3797 17.9144 83.0008 16.7804 83.7766 15.7526C84.4439 14.807 85.2653 13.9782 86.2073 13.3004C86.9125 12.8568 87.7204 12.5993 88.5541 12.5522C89.0423 12.5381 89.5189 12.7006 89.8952 13.0094C90.0595 13.1533 90.187 13.3338 90.2672 13.5362C90.3473 13.7385 90.3778 13.9569 90.3562 14.1732C90.3135 14.5011 90.229 14.8223 90.1047 15.1292C90.2603 15.3147 90.3356 15.5538 90.3143 15.7942C90.27 16.3128 90.0973 16.8125 89.8114 17.2489C89.5882 17.6225 89.3921 18.0114 89.2246 18.4127C88.5122 19.7012 88.135 20.7818 88.135 21.6962C88.0885 22.1647 88.2069 22.6347 88.4703 23.0263C88.6633 23.3315 88.9393 23.5764 89.2666 23.7328C89.4428 23.7968 89.5923 23.9176 89.691 24.0759C89.7898 24.2341 89.8322 24.4207 89.8114 24.6057C89.8114 24.9797 89.518 25.2291 88.8894 25.3538C88.7061 25.2624 88.507 25.206 88.3027 25.1876L87.716 24.9382C87.5232 24.8303 87.3638 24.6722 87.255 24.481C86.79 23.932 86.5243 23.2441 86.5006 22.5275C86.6041 22.1886 86.6743 21.8407 86.7102 21.4884ZM82.5612 6.27611C83.3426 5.65175 83.9848 4.87333 84.4471 3.99011C84.8869 3.18952 85.2247 2.33788 85.4529 1.45473C85.4948 0.498763 85.9558 0 86.7102 0C87.4645 0 87.5902 0.415646 87.5902 1.20535C87.446 2.36532 87.0298 3.47564 86.3749 4.44731C85.7208 5.53634 84.9168 6.52958 83.9861 7.39833C83.3575 7.93866 82.9803 8.18804 82.7289 8.18804C82.6291 8.17739 82.5328 8.14597 82.4461 8.09584C82.3594 8.0457 82.2844 7.97797 82.226 7.89709C82.1404 7.81788 82.0736 7.72095 82.0301 7.61319C81.9866 7.50543 81.9677 7.38949 81.9745 7.27363C82.0361 6.87959 82.2457 6.52324 82.5612 6.27611ZM73.0481 15.1707C72.7401 14.9661 72.3684 14.8776 72.0004 14.9213C71.6062 14.9328 71.219 15.0277 70.8648 15.1998C70.5107 15.3718 70.1977 15.617 69.9469 15.9189C69.4368 16.3938 68.9992 16.9399 68.6477 17.5399C68.275 18.1792 67.9527 18.8462 67.6838 19.5349C67.4889 20.1266 67.3761 20.7418 67.3486 21.3637C67.3905 22.0287 67.6419 22.4028 67.9772 22.5275C68.3125 22.6522 69.5278 21.6547 70.6593 19.909C70.9721 19.3863 71.252 18.8449 71.4975 18.288C71.7908 17.7477 72.1261 17.1658 72.4195 16.5423C72.7128 15.9189 72.9224 15.4617 73.0481 15.1707ZM71.4137 21.2806C70.1145 23.525 68.8573 24.7304 67.6419 24.7719C66.4266 24.8135 65.7141 23.6913 65.7141 21.8625C65.719 20.5922 66.0202 19.3404 66.5942 18.2049C67.1514 16.9707 67.8854 15.8228 68.7734 14.7966C69.2665 14.3341 69.8328 13.955 70.4498 13.6744C70.9756 13.3432 71.587 13.1699 72.2099 13.1757C72.4794 13.1495 72.7514 13.1764 73.0103 13.2549C73.2692 13.3333 73.5099 13.4618 73.7186 13.6329L77.3227 6.77488L78.999 3.99011C79.3343 3.40822 79.6696 2.95102 79.8372 2.70163C79.9152 2.58215 80.0201 2.48236 80.1438 2.4102C80.2675 2.33805 80.4065 2.29551 80.5497 2.286C80.6779 2.2902 80.8029 2.32676 80.9129 2.39222C81.0229 2.45767 81.1142 2.54986 81.1783 2.66008C81.3451 2.8415 81.4351 3.07962 81.4297 3.32509C81.4105 3.61237 81.3395 3.8939 81.2202 4.15636L80.5077 5.23702C80.2954 5.52272 80.1128 5.8291 79.9629 6.15142C78.7895 8.02179 78.0352 9.31025 77.658 10.0168C77.2808 10.7234 76.6522 11.7625 75.9398 13.1341C75.2601 14.4277 74.6583 15.76 74.1377 17.1242C73.6623 18.2089 73.3516 19.3574 73.2157 20.5324C73.2171 20.8254 73.189 21.1178 73.1319 21.4053C73.2157 22.4444 73.4672 23.1509 73.8862 23.4003C74.0323 23.5031 74.1598 23.6296 74.2634 23.7744V24.1069C74.2634 24.19 74.2215 24.2732 74.2215 24.3978C74.1876 24.4617 74.1731 24.5338 74.1796 24.6057C74.0155 24.8565 73.7604 25.0351 73.4672 25.1044C73.1122 25.041 72.781 24.884 72.5082 24.65C72.2354 24.416 72.0311 24.1136 71.9166 23.7744C71.5917 22.9821 71.4211 22.1359 71.4137 21.2806ZM51.5492 19.4518C52.0896 19.2887 52.6098 19.0656 53.0998 18.7868C53.623 18.3973 54.1135 17.9664 54.5666 17.4983C55.3628 16.7086 55.8238 16.0436 55.8657 15.6279C55.9076 15.2123 55.7819 15.0045 55.5304 15.0045C55.279 15.0045 54.6085 15.3785 53.9379 15.9604C53.3785 16.4692 52.8983 17.0575 52.5131 17.7061C52.0831 18.2221 51.7559 18.8145 51.5492 19.4518ZM51.1301 20.9065C51.1301 21.9872 51.7587 22.6106 52.8902 22.6937C53.8148 22.5851 54.6953 22.2415 55.4466 21.6962C56.4185 20.9062 57.3421 20.0596 58.2126 19.1608L58.464 18.8699C58.5539 18.7612 58.6689 18.6756 58.7993 18.6205C58.8383 18.5689 58.8889 18.527 58.9471 18.4981C59.0053 18.4693 59.0695 18.4543 59.1346 18.4543C59.2044 18.4547 59.2727 18.4744 59.3318 18.5111C59.391 18.5478 59.4388 18.6001 59.4698 18.6621C59.5186 18.6943 59.5592 18.7374 59.5883 18.7879C59.6174 18.8384 59.6343 18.8949 59.6375 18.953C59.6375 18.9946 59.5955 19.1193 59.5955 19.1608C59.5804 19.1777 59.5688 19.1975 59.5616 19.2189C59.5544 19.2403 59.5517 19.263 59.5536 19.2855C59.144 20.1082 58.5575 20.8317 57.8354 21.4053C56.8584 22.289 55.7909 23.0691 54.6504 23.7328C53.8174 24.1986 52.8823 24.4555 51.9263 24.481C50.1243 24.3563 49.2442 23.4419 49.2442 21.6962C49.2642 20.5654 49.5512 19.455 50.0824 18.4543C50.5575 17.4548 51.1789 16.5304 51.9263 15.7111C53.6865 14.0069 55.1533 13.1341 56.2848 13.1341C57.4163 13.1341 57.6259 13.5497 57.6259 14.4641C57.5683 15.2891 57.2778 16.0813 56.7877 16.7501C55.4711 18.769 53.461 20.2457 51.1301 20.9065ZM51.7587 7.27363C51.9171 7.05322 52.1238 6.87135 52.3634 6.74175C52.603 6.61215 52.8691 6.5382 53.1417 6.52549C53.2758 6.50601 53.4128 6.52275 53.5382 6.57395C53.6636 6.62515 53.7727 6.70892 53.8541 6.81644C53.8541 6.88778 53.8684 6.95841 53.896 7.02426C53.896 7.19052 53.9379 7.27364 53.9379 7.39833C53.9071 8.02707 53.6376 8.62098 53.1836 9.06088C53.008 9.31619 52.7782 9.53032 52.5103 9.68827C52.2425 9.84623 51.943 9.94418 51.633 9.97527C51.4995 9.97141 51.3697 9.93039 51.2586 9.8569C51.1474 9.78341 51.0593 9.6804 51.0044 9.55963C50.9579 9.44439 50.9018 9.33318 50.8367 9.22713C50.9574 8.50437 51.2764 7.8285 51.7587 7.27363ZM48.5318 14.2148C48.909 13.716 49.2861 13.4251 49.5795 13.4251C49.7674 13.4298 49.9467 13.5039 50.0824 13.6329C50.152 13.6802 50.2104 13.7418 50.2538 13.8135C50.2972 13.8852 50.3245 13.9654 50.3338 14.0485C50.2321 14.4516 50.0304 14.823 49.7471 15.1292C49.0945 15.9919 48.5195 16.9098 48.0289 17.8724C47.4841 18.8699 47.0231 19.909 46.5621 20.9481C46.1751 21.8242 45.8529 22.7271 45.5982 23.6497C45.3468 24.3979 45.1372 24.855 44.8858 24.9382L44.5086 25.1044C43.9638 24.9797 43.7123 24.6472 43.7123 23.9406C43.7123 23.2341 44.5086 21.2806 45.5144 19.2024C46.3721 17.456 47.3817 15.7872 48.5318 14.2148ZM39.4796 18.4543C38.9821 19.5515 38.5893 20.6926 38.3062 21.8625C38.3062 22.1118 38.4738 22.2365 38.8091 22.2781C39.3064 22.2114 39.7653 21.9765 40.1082 21.6131C40.5261 21.2167 40.8921 20.7698 41.1978 20.2831C41.4912 19.7843 41.7846 19.2855 42.0779 18.8699C42.3713 18.4543 42.6227 18.2464 42.8742 18.2464C43.1256 18.2464 43.0837 18.3711 43.2094 18.4543C43.2897 18.5784 43.3332 18.7224 43.3352 18.8699C43.2991 19.0874 43.2284 19.2979 43.1256 19.4933C42.7174 20.2943 42.2407 21.0591 41.7007 21.7793C41.2227 22.4572 40.6593 23.0717 40.0244 23.6081C39.4302 24.1013 38.7 24.4055 37.929 24.481C37.0908 24.3979 36.5879 23.8575 36.4622 22.9016C36.495 22.382 36.5792 21.8669 36.7137 21.3637C37.5529 18.6958 38.6329 16.1084 39.9406 13.6329C41.2291 10.9399 42.7579 8.36653 44.5086 5.9436C46.0592 3.69917 47.4841 2.20287 48.5737 1.49629C48.9669 1.21255 49.4304 1.04016 49.9148 0.997537C50.1047 0.993724 50.2926 1.03741 50.4611 1.12458C50.6295 1.21175 50.7731 1.33958 50.8786 1.49629C51.1444 1.79507 51.2931 2.17857 51.2977 2.57695C51.2575 3.12457 51.1154 3.66006 50.8786 4.15636C50.4148 5.31684 49.8394 6.43034 49.1604 7.48145C48.4061 8.64523 47.5679 9.80901 46.604 11.0144C45.597 12.2783 44.5197 13.4855 43.3771 14.6304C42.2464 15.8118 41.0427 16.9223 39.773 17.9555L39.4796 18.4543ZM40.8207 15.2954C42.0801 14.2936 43.2317 13.1654 44.2571 11.9288C45.4552 10.5033 46.561 9.00403 47.5679 7.4399C48.3052 6.37805 48.8839 5.21611 49.2861 3.99011V3.57447C49.2861 3.32509 49.1185 3.2004 48.8251 3.2004C48.4679 3.34762 48.1411 3.55898 47.8613 3.82386C47.3058 4.38886 46.801 5.00077 46.3526 5.65265C45.6998 6.53233 45.0981 7.44822 44.5505 8.39585C43.88 9.43495 43.2933 10.5156 42.6227 11.7209C41.9522 12.9263 41.3655 14.1732 40.8207 15.2954ZM23.4288 34.1653C22.7638 34.6688 21.9596 34.9588 21.1238 34.9966C20.8612 35.0125 20.5982 34.9726 20.3524 34.8794C20.1066 34.7862 19.8838 34.6419 19.6989 34.4562C19.503 34.2446 19.3534 33.995 19.2596 33.7232C19.1658 33.4513 19.1299 33.1631 19.1541 32.8768C19.1336 31.8906 19.4109 30.9208 19.9504 30.0921C20.5043 29.2097 21.2311 28.4465 22.0877 27.8476C22.7749 27.2949 23.5034 26.7947 24.2669 26.3513L27.7034 24.6057L28.4578 23.1094C28.6673 22.6522 28.793 22.2365 28.9606 21.9456V21.8625C27.9549 23.1094 26.9071 23.7744 25.7337 23.8991C24.5603 24.0238 24.2669 23.1094 24.2669 21.9872C24.2669 20.8649 25.147 18.4543 26.7814 16.1683C27.6226 15.0317 28.6412 14.0355 29.7988 13.2172C30.5593 12.6888 31.4355 12.3469 32.3552 12.2197C33.4448 12.2197 33.9896 12.8016 33.9896 13.9654C33.9623 14.6576 33.7911 15.3369 33.4867 15.9604L33.7801 16.3761C33.7827 16.4081 33.7978 16.4379 33.822 16.4592V16.5423C33.7329 16.8626 33.5757 17.1602 33.361 17.4152C33.0257 17.8724 32.6067 18.4958 32.0619 19.3686C31.517 20.2415 30.9722 21.3637 30.3017 22.7353V22.9016C32.3476 21.4724 34.0504 19.6133 35.2888 17.4567C35.3436 17.3241 35.429 17.2061 35.5382 17.1123C35.6474 17.0184 35.7773 16.9513 35.9174 16.9164L36.2108 17.0411C36.3015 17.1759 36.3456 17.3364 36.3365 17.4983C36.2013 18.0445 35.9746 18.5643 35.666 19.0361C35.1971 19.7865 34.6643 20.4957 34.0734 21.1559C33.4041 21.9714 32.645 22.7103 31.8104 23.3588C30.9387 24.1038 29.9823 24.7455 28.9606 25.2707C26.991 29.6764 25.147 32.6274 23.4288 34.1653ZM30.176 18.5374L29.7988 18.1217C29.9347 17.9028 30.1044 17.7065 30.3017 17.5399C30.634 17.3227 30.9308 17.0564 31.1818 16.7501C31.4879 16.3467 31.7545 15.9153 31.978 15.4617C32.0601 15.233 32.1163 14.996 32.1457 14.7551C32.1457 14.4226 31.978 14.2563 31.6847 14.2563C31.3913 14.2563 30.637 14.672 29.7569 15.4201C27.6056 17.4983 26.3903 19.4933 26.1109 21.4053C26.0864 21.5756 26.1295 21.7488 26.2311 21.8883C26.3327 22.0278 26.4849 22.1229 26.6557 22.1534C27.9129 21.8625 29.1283 20.6571 30.176 18.5374ZM26.6138 26.6423C25.6476 27.0121 24.7541 27.5466 23.9736 28.2217C23.1404 28.8735 22.394 29.6277 21.7524 30.4661C21.2777 31.0167 20.9851 31.6986 20.9143 32.4196C20.9143 32.863 21.0819 33.1124 21.4172 33.1678C21.6773 33.1462 21.9303 33.0724 22.1608 32.951C22.3913 32.8295 22.5946 32.6629 22.7582 32.4612C23.2959 31.9325 23.7737 31.3471 24.1831 30.7155C24.5786 30.1541 24.9424 29.5713 25.2727 28.9698C25.608 28.4711 25.9852 27.7229 26.6138 26.6423ZM23.0935 12.5107C24.0155 12.5522 24.5184 13.2172 24.5184 14.4641C24.5184 15.7111 24.1412 16.8748 23.3869 18.5374C22.6589 20.1139 21.714 21.5826 20.579 22.9016C19.5732 24.1485 18.4836 24.7304 17.4778 24.7304C16.472 24.7304 15.5919 23.8575 15.55 22.2781C15.5081 20.6987 16.3044 18.6205 17.6454 16.667C18.1212 15.9249 18.6839 15.2413 19.3218 14.6304C19.8668 14.036 20.5033 13.531 21.2076 13.1341C21.7649 12.7551 22.4184 12.539 23.0935 12.5107ZM21.1238 19.4933C20.9192 19.3865 20.746 19.229 20.6209 19.0361C20.7868 18.6465 21.029 18.2933 21.3334 17.9971C21.7192 17.5245 22.0693 17.0244 22.3811 16.5008C22.6518 16.1337 22.8248 15.7048 22.884 15.2539C22.884 14.7967 22.6744 14.5473 22.3392 14.5473C21.9909 14.5692 21.6628 14.7171 21.4172 14.9629C20.3188 15.7847 19.3814 16.7989 18.6512 17.9555C17.9018 19.0591 17.4409 20.3304 17.3102 21.6546C17.3488 21.9168 17.4339 22.1701 17.5616 22.4028C17.7325 22.5425 17.9331 22.6419 18.1483 22.6937C18.7506 22.5915 19.2906 22.2643 19.657 21.7793C20.2822 21.1122 20.7793 20.3375 21.1238 19.4933ZM10.3115 3.82386C9.93432 3.82386 9.76669 3.6576 9.68287 3.2004C9.70278 2.92518 9.81124 2.66356 9.99231 2.45405C10.1734 2.24455 10.4175 2.09823 10.6887 2.03663C11.698 1.67678 12.7352 1.39878 13.7899 1.20535C15.0471 0.955973 16.3044 0.706589 17.4778 0.540335C18.6512 0.37408 19.5732 0.29095 20.0761 0.29095C21.6267 0.29095 22.423 0.66502 22.423 1.28847C22.4446 1.43789 22.4249 1.59035 22.3658 1.72948C22.3068 1.86861 22.2106 1.98915 22.0877 2.07818C21.9822 2.19522 21.853 2.28899 21.7086 2.35343C21.5643 2.41786 21.4079 2.45154 21.2495 2.45226C20.7464 2.30744 20.2216 2.25116 19.6989 2.286C18.7699 2.2983 17.844 2.3957 16.933 2.57695L13.1613 3.44979C12.5011 4.24701 11.8855 5.07953 11.3173 5.9436C10.6049 6.94113 10.0181 7.89709 9.43142 8.72836C8.84471 9.55963 8.55135 10.3078 8.2999 10.8065C10.052 10.4135 11.8309 10.1495 13.6222 10.0168C14.8376 10.0168 15.4243 10.2662 15.4662 10.6819C15.5081 11.0975 15.3824 11.4716 15.1729 11.6378C14.829 11.7815 14.4547 11.8386 14.0832 11.8041C11.622 11.9876 9.18968 12.4478 6.83311 13.1757C5.65968 15.1292 4.31862 18.1633 2.72611 22.2365C2.72611 22.2781 2.55848 22.6937 2.34894 23.4419C2.18576 23.9526 1.98979 24.4523 1.76222 24.9382C1.6735 25.0371 1.56324 25.1147 1.43981 25.1651C1.31638 25.2155 1.183 25.2374 1.04978 25.2291C0.898044 25.212 0.751909 25.1623 0.621605 25.0833C0.4913 25.0043 0.379981 24.898 0.295437 24.7719C0.0867449 24.4662 -0.0162092 24.1016 0.00207474 23.7328C0.149821 22.9595 0.388956 22.2062 0.714519 21.4884C1.21742 20.1999 1.80413 18.8699 2.51657 17.4152C3.22901 15.9604 3.98335 14.5473 4.82152 13.1341C5.65968 11.7209 6.62357 9.97528 7.797 8.02179C8.97043 6.0683 9.8086 4.73826 10.3115 3.82386Z" fill="white"/>
</svg>
